<svg width="125" height="20" viewBox="0 0 125 20" fill="none" xmlns="http://www.w3.org/2000/svg">
<path d="M8.75622 5.47279H10.7463C11.9901 5.47279 13.2836 5.72155 13.2836 7.16433C13.2836 8.40811 12.4876 9.30364 10.1493 9.30364H7.9602L8.75622 5.47279ZM0 19.5524H5.77114L6.96517 13.831H10.8955C15.8706 13.831 19.1045 10.5474 19.1045 6.71657C19.1045 2.53747 16.8657 0.597168 13.3831 0.597168H3.9801L0 19.5524Z" fill="#004B8D"/>
<path d="M26.2189 7.11458L26.9154 12.7862H23.2836L26.2189 7.11458ZM13.7313 19.5524H19.7015L21.1443 16.8658H27.3134L27.6119 19.5524H33.3333L30.4477 0.597168H24.6766L13.7313 19.5524Z" fill="#004B8D"/>
<path d="M35.7711 12.5872L31.6915 0.597168H37.5622L39.3532 7.66185L43.9801 0.597168H50.8458L41.592 12.5375L40.1492 19.5524H34.3283L35.7711 12.5872Z" fill="#004B8D"/>
<path d="M64.7762 12.3384C64.4279 14.2787 62.9354 20.0001 55.0249 20.0001C49.5025 20.0001 46.8657 16.418 46.8657 11.3434C46.8657 5.22399 50.6966 0.0996094 57.1642 0.0996094C61.3931 0.0996094 65.1742 1.94041 65.2737 7.61205H59.7513C59.801 5.821 58.9553 4.82598 57.1642 4.82598C53.9304 4.82598 52.7364 8.55732 52.7364 11.2439C52.7364 12.8359 53.1344 15.224 55.8209 15.224C57.6617 15.224 58.7065 13.9802 59.0548 12.2887L64.7762 12.3384Z" fill="#004B8D"/>
<path d="M68.1592 0.597168H74.0299L72.6368 7.16433H77.9602L79.3533 0.597168H85.2239L81.2438 19.5524H75.4229L76.9652 12.04H71.6418L70.0498 19.5524H64.2289L68.1592 0.597168Z" fill="#004B8D"/>
<path d="M86.7662 0.597168H102.438L101.443 5.47279H91.5921L91.0946 7.8111H100.249L99.3036 12.3385H90.1493L89.6518 14.6768H99.7016L98.7065 19.5524H82.7861L86.7662 0.597168Z" fill="#004B8D"/>
<path d="M106.468 9.50264L102.09 0.597168H108.458L110.298 5.52254L114.08 0.597168H120.995L113.085 9.50264L117.711 19.5524H111.144L109.055 14.2788L104.627 19.5524H97.4626L106.468 9.50264Z" fill="#004B8D"/>
<path d="M121.741 1.44279C121.741 0.746269 122.239 0.199005 122.935 0.199005C123.582 0.199005 124.129 0.746269 124.129 1.44279C124.129 2.1393 123.632 2.68657 122.935 2.68657C122.289 2.68657 121.741 2.1393 121.741 1.44279ZM121.493 1.44279C121.493 2.28856 122.139 2.88557 122.935 2.88557C123.731 2.88557 124.378 2.28856 124.378 1.44279C124.378 0.646766 123.731 0 122.935 0C122.139 0 121.493 0.646766 121.493 1.44279ZM122.388 2.28856H122.637V1.59204H122.886L123.333 2.33831H123.632L123.134 1.59204C123.383 1.59204 123.582 1.44279 123.582 1.14428C123.582 0.79602 123.383 0.646766 122.985 0.646766H122.388V2.28856ZM122.637 0.845771H122.985C123.184 0.845771 123.333 0.895522 123.333 1.09453C123.333 1.34328 123.134 1.39303 122.886 1.39303H122.637V0.845771Z" fill="#004B8D"/>
</svg>
