<svg width="202" height="40" viewBox="0 0 202 40" fill="none" xmlns="http://www.w3.org/2000/svg">
<g clip-path="url(#clip0_372_139)">
<path fill-rule="evenodd" clip-rule="evenodd" d="M55.5662 7.3948C57.0577 7.10067 58.5703 7.10067 60.0407 7.3948L60.104 7.41588V32.0583L60.0407 32.0793C58.5492 32.3735 57.0577 32.3735 55.5662 32.0793L55.503 32.0583V22.0583H45.3562V32.0583L45.2932 32.0793C44.537 32.2264 43.8017 32.3102 43.0453 32.3102C42.2889 32.3102 41.5538 32.2264 40.8184 32.0793L40.7554 32.0583V7.41564L40.8184 7.39456C42.2891 7.07959 43.8017 7.07959 45.2932 7.39456L45.3562 7.41564V18.1297H55.503V7.41588L55.5662 7.3948ZM71.343 14.3275C73.948 14.3275 76.091 15.1677 77.4984 16.7225C79.0951 18.5081 79.7463 21.155 79.3892 24.4113V24.4952H67.0364C67.0786 27.8147 68.5281 29.4113 71.4481 29.4113C73.5487 29.4113 74.9775 28.3819 75.2716 26.6592V26.5962H75.3346C76.7001 26.407 77.8556 26.4911 79.0951 26.9112L79.1581 26.9323V26.9953C78.8429 29.8947 76.3222 32.8144 71.4062 32.8144C68.5281 32.8144 66.3221 31.9112 64.8726 30.1677C63.5281 28.55 62.8558 26.2599 62.8558 23.3189C62.8558 17.6887 66.028 14.3275 71.343 14.3275ZM71.2592 17.5208C68.6541 17.5208 67.1205 19.1174 66.9945 21.9112H75.2086C75.2716 20.5459 74.9356 19.4113 74.2002 18.6341C73.5068 17.8988 72.4984 17.5208 71.2589 17.5208H71.2592ZM82.4144 7.3948C83.801 7.07983 85.2295 7.07983 86.6158 7.3948L86.679 7.41588V32.0583L86.6158 32.0793C85.9226 32.2264 85.2084 32.3102 84.5152 32.3102C83.822 32.3102 83.1075 32.2264 82.4144 32.0793L82.3514 32.0583V7.41564L82.4144 7.3948ZM98.8216 14.3275C103.863 14.3275 106.742 17.7098 106.742 23.5922C106.742 29.3483 103.842 32.7936 98.9897 32.7936C97.246 32.7936 95.6915 32.3313 94.2208 31.407V39.6211L94.1578 39.6422C93.4644 39.7893 92.7502 39.8731 92.057 39.8731C91.3638 39.8731 90.6493 39.7893 89.9564 39.6422L89.8932 39.6211V15.1047L89.9562 15.0839C90.9856 14.7687 91.8469 14.7687 92.8975 15.0839L92.9394 15.1047L93.1914 16.4073C95.0189 15.042 96.9729 14.3275 98.8216 14.3275ZM94.1578 19.1802V27.9826C95.3974 28.8441 96.6158 29.264 97.8972 29.264C100.901 29.264 102.498 27.3105 102.498 23.6552C102.498 19.9155 100.88 17.8779 97.9392 17.8779C96.6577 17.8779 95.4601 18.298 94.1578 19.1804V19.1802ZM125.229 18.7811C128.653 20.1047 132.203 21.4702 132.224 25.6087C132.182 31.8482 126.3 32.7936 122.729 32.7936C119.094 32.7936 116.258 31.8482 114.536 29.9994C113.254 28.6341 112.645 26.8693 112.771 24.8736V24.8106L112.834 24.7895C114.304 24.4532 115.817 24.4324 117.309 24.7265L117.371 24.7474V24.8106C117.246 25.9239 117.519 26.8274 118.17 27.5416C119.052 28.5079 120.607 29.0331 122.645 29.0331C124.493 29.0331 125.88 28.6338 126.678 27.8147C127.224 27.2475 127.497 26.5122 127.476 25.5879C127.434 23.8022 125.439 23.1299 122.12 21.9744C121.447 21.7433 120.67 21.4702 119.872 21.1761L119.493 21.0501C117.057 20.1677 112.96 18.6971 113.002 14.2645C113.065 9.81085 116.657 7.14282 122.623 7.14282H122.729C125.943 7.1639 128.485 8.04606 130.061 9.72677C131.342 11.0712 131.972 12.8779 131.867 14.9368V14.9998L131.804 15.0207C130.207 15.3778 128.737 15.4199 127.287 15.1258L127.224 15.1047V15.042C127.308 13.8235 127.014 12.836 126.342 12.122C125.565 11.2607 124.241 10.8195 122.54 10.8195C120.817 10.8195 119.388 11.2817 118.569 12.1428C118.002 12.7102 117.729 13.4453 117.75 14.2858C117.813 16.0925 119.829 16.8276 123.17 18.0252C123.821 18.2564 124.493 18.5083 125.229 18.7814V18.7811ZM143.001 17.8779C139.976 17.8779 138.569 19.6846 138.569 23.55C138.569 27.4154 139.976 29.2221 143.001 29.2221C143.779 29.2221 146.383 29.0329 146.783 26.344V26.281H146.846C148.232 26.0291 149.535 26.1129 150.711 26.5122L150.774 26.5332V26.5962C150.627 28.1929 149.913 29.6844 148.737 30.7768C147.329 32.1002 145.312 32.7936 142.917 32.7936C137.371 32.7936 134.304 29.5162 134.304 23.5711C134.304 17.6046 137.392 14.3064 143.001 14.3064C145.354 14.3064 147.35 14.9788 148.737 16.2602C149.955 17.3737 150.69 18.9493 150.816 20.6719V20.7349L150.753 20.756C149.514 21.1129 148.211 21.1972 146.846 20.9871H146.783V20.9239C146.636 19.7895 145.964 17.8779 143.001 17.8779ZM161.446 14.3275C166.972 14.3275 169.997 17.6049 169.997 23.5922C169.997 29.5371 166.972 32.8144 161.446 32.8144C155.942 32.8144 152.896 29.5373 152.896 23.5919C152.896 17.6257 155.921 14.3275 161.446 14.3275ZM165.837 23.5711C165.837 19.7476 164.408 17.8777 161.446 17.8777C158.442 17.8777 157.056 19.6846 157.056 23.5711C157.056 27.3946 158.484 29.2432 161.446 29.2432C164.408 29.2432 165.837 27.3735 165.837 23.5711ZM183.82 15.1047C185.227 14.7479 186.635 14.7479 188.022 15.1047L188.085 15.1258V32.0583L188.022 32.0793C187.013 32.3524 185.963 32.3524 184.954 32.0793L184.912 32.0583L184.492 30.1253C182.517 31.9531 180.69 32.7725 178.568 32.7725C174.639 32.7725 172.371 30.3776 172.371 26.1761V15.1258L172.434 15.1047C173.82 14.7687 175.249 14.7687 176.635 15.1047L176.698 15.1258V25.2097C176.698 27.9826 177.58 29.1593 179.639 29.1593C181.11 29.1593 182.37 28.613 183.757 27.4156V15.1258L183.82 15.1047ZM201.319 28.7598C201.635 29.9574 201.635 31.1129 201.298 32.2264L201.277 32.2683H201.235C200.038 32.4995 198.988 32.6255 198.063 32.6255C196.572 32.6255 195.437 32.3102 194.639 31.659C193.168 30.4405 193.042 28.2978 193.042 26.197L193 18.6552H190.836L190.816 18.5922C190.543 17.4156 190.543 16.2393 190.816 15.0839L190.836 15.0207H193L192.958 10.3572L193.021 10.3359C194.408 10.0209 195.836 10.0209 197.223 10.3359L197.286 10.357V15.0207H200.71L200.731 15.0839C200.962 16.2393 200.962 17.4156 200.731 18.5713L200.71 18.6341H197.286V26.4911C197.286 27.5416 197.517 28.2137 197.979 28.5919C198.568 29.0542 199.534 29.0961 201.215 28.6971L201.299 28.676L201.319 28.7598Z" fill="#213743"/>
<path fill-rule="evenodd" clip-rule="evenodd" d="M14.0709 11.7931L2.52551 23.5863C1.08263 22.1121 0.180599 20.0853 0 17.6896C0 15.4786 1.0824 13.2673 2.52551 11.7931L14.2515 0C15.6946 1.47425 16.5964 3.68527 16.5964 5.89653C16.5964 8.10778 15.5143 10.319 14.0711 11.7931H14.0709ZM19.1497 28.1222L30.8216 16.3289C32.2807 17.9873 33.1928 20.0144 33.1928 22.2254C33.1928 24.4366 32.0982 26.6479 30.6395 28.1222L18.9672 39.9152C17.5083 38.441 16.5964 36.2297 16.5964 34.0187C16.5964 31.8074 17.6905 29.5962 19.1497 28.1222ZM18.8635 11.7931L22.3097 8.34587L30.8347 0C32.2857 1.4515 33.1926 3.62874 33.1926 5.80599C33.1926 7.98323 32.1044 10.1602 30.6532 11.6117L22.3097 19.9576L18.8635 23.4048L13.9665 28.3035L10.5202 31.7507L2.35808 39.9152C0.906826 38.4637 0 36.2865 0 34.1092C0 31.932 1.08838 29.7547 2.5394 28.3035L10.7016 20.1389L13.9662 16.6917L18.8635 11.7931Z" fill="#1292EE"/>
</g>
<defs>
<clipPath id="clip0_372_139">
<rect width="201.677" height="40" fill="white"/>
</clipPath>
</defs>
</svg>
