<svg width="582" height="560" viewBox="0 0 582 560" fill="none" xmlns="http://www.w3.org/2000/svg">
<g filter="url(#filter0_f_1_204)">
<path d="M292 459.4C193.252 459.4 113.2 379.08 113.2 280C113.2 180.92 193.252 100.6 292 100.6C390.749 100.6 470.8 180.92 470.8 280C470.8 379.08 390.749 459.4 292 459.4Z" fill="#F1B1D5" fill-opacity="0.4"/>
</g>
<path d="M288.722 440.945C199.774 440.945 127.667 368.837 127.667 279.889C127.667 190.94 199.774 118.833 288.722 118.833C377.671 118.833 449.778 190.94 449.778 279.889C449.778 368.837 377.671 440.945 288.722 440.945Z" fill="#F1B1D5"/>
<path d="M93.889 222.778L120 248.889L149.667 240.278C150.667 240 151 238.722 150.278 237.944L126.444 214.111C126.111 213.778 125.556 213.611 125.056 213.778L93.889 222.778Z" fill="#F48914" stroke="#17005E" stroke-width="1.5" stroke-miterlimit="10" stroke-linecap="round" stroke-linejoin="round"/>
<path d="M147 238L126.111 217.111L119 245.389L147 238Z" fill="#17005E" stroke="#17005E" stroke-width="1.5" stroke-miterlimit="10" stroke-linecap="round" stroke-linejoin="round"/>
<path d="M145.556 236.556C143.278 234.278 139.889 233.444 136.833 234.333L136.389 234.444C130.111 236.333 124.444 239.722 119.833 244.333L117.667 246.5L147.056 238L145.556 236.556Z" fill="#DEFAE5" stroke="#17005E" stroke-width="1.5" stroke-miterlimit="10" stroke-linecap="round" stroke-linejoin="round"/>
<path d="M128.167 219.111C130.445 221.389 131.278 224.778 130.389 227.833L130.278 228.278C128.389 234.556 125 240.222 120.389 244.833L118.222 247L126.722 217.611L128.167 219.111Z" fill="#DEFAE5" stroke="#17005E" stroke-width="1.5" stroke-miterlimit="10" stroke-linecap="round" stroke-linejoin="round"/>
<path d="M93.1667 222.056L120 248.889L129 217.778C129.167 217.278 129 216.778 128.667 216.389L104.056 191.778C103.333 191.056 102.056 191.333 101.722 192.389L93.1667 222.056Z" fill="#F48914" stroke="#17005E" stroke-width="1.5" stroke-miterlimit="10" stroke-linecap="round" stroke-linejoin="round"/>
<path d="M99.3333 222L116.167 238.833C116.667 239.333 117.556 239.111 117.778 238.444L123.5 218.722C123.667 218.167 123.5 217.5 123.056 217.111L106.222 200.278C105.722 199.778 104.833 200 104.611 200.667L98.8889 220.389C98.7778 220.944 98.8889 221.556 99.3333 222Z" fill="#F6A143" stroke="#17005E" stroke-width="1.5" stroke-miterlimit="10" stroke-linecap="round" stroke-linejoin="round"/>
<path d="M93.0582 221.418L121.499 249.859L119.574 251.784L91.1333 223.343L93.0582 221.418Z" fill="#F48914" stroke="#17005E" stroke-width="1.5" stroke-miterlimit="10" stroke-linecap="round" stroke-linejoin="round"/>
<path d="M93.0572 221.408L118.513 246.863L116.588 248.788L91.1323 223.333L93.0572 221.408Z" fill="#F48914" stroke="#17005E" stroke-width="1.5" stroke-miterlimit="10" stroke-linecap="round" stroke-linejoin="round"/>
<path d="M476.977 371.419L514.365 346.53L516.365 316.807C516.421 315.807 515.199 315.419 514.143 316.141L479.921 338.863C479.421 339.196 479.088 339.696 479.032 340.196L476.977 371.419Z" fill="#17005E" stroke="#17005E" stroke-width="1.5" stroke-miterlimit="10" stroke-linecap="round" stroke-linejoin="round"/>
<path d="M512.977 319.363L483.032 339.252L510.31 347.419L512.977 319.363Z" fill="#DEFAE5" stroke="#17005E" stroke-width="1.5" stroke-miterlimit="10" stroke-linecap="round" stroke-linejoin="round"/>
<path d="M510.921 320.752C507.643 322.919 505.477 326.252 505.31 329.363V329.807C504.921 336.085 506.421 341.863 509.532 346.585L511.032 348.807L513.032 319.363L510.921 320.752Z" fill="#DEFAE5" stroke="#17005E" stroke-width="1.5" stroke-miterlimit="10" stroke-linecap="round" stroke-linejoin="round"/>
<path d="M476.588 332.03C479.865 329.196 484.365 328.307 488.254 329.641L488.81 329.863C496.643 332.585 503.477 337.307 508.81 343.474L511.31 346.363L474.477 333.807L476.588 332.03Z" fill="#DEFAE5" stroke="#17005E" stroke-width="1.5" stroke-miterlimit="10" stroke-linecap="round" stroke-linejoin="round"/>
<path d="M475.865 372.085L514.365 346.53L474.477 331.807C473.643 331.53 472.754 331.641 472.032 332.085L438.365 354.474C436.865 355.474 437.143 357.807 438.81 358.419L475.865 372.085Z" fill="#45337E" stroke="#17005E" stroke-width="1.5" stroke-miterlimit="10" stroke-linecap="round" stroke-linejoin="round"/>
<path d="M474.421 366.752L501.199 348.974L472.81 338.085L446.032 355.919L474.421 366.752Z" fill="#17005E" stroke="#17005E" stroke-width="1.5" stroke-miterlimit="10" stroke-linecap="round" stroke-linejoin="round"/>
<path d="M475.037 372.118L515.849 344.996L517.694 347.772L476.882 374.894L475.037 372.118Z" fill="#45337E" stroke="#17005E" stroke-width="1.5" stroke-miterlimit="10" stroke-linecap="round" stroke-linejoin="round"/>
<path d="M475.061 372.127L511.57 347.865L513.415 350.641L476.906 374.903L475.061 372.127Z" fill="#17005E" stroke="#17005E" stroke-width="1.5" stroke-miterlimit="10" stroke-linecap="round" stroke-linejoin="round"/>
<path d="M163.333 446.833H201.889V464.667H163.333V446.833Z" fill="#E556A8" stroke="#17005E" stroke-width="1.5" stroke-miterlimit="10" stroke-linecap="round" stroke-linejoin="round"/>
<path d="M291.889 487L296.222 502.389H334.056L330.5 487H291.889Z" fill="#E556A8" stroke="#17005E" stroke-width="1.5" stroke-miterlimit="10" stroke-linecap="round" stroke-linejoin="round"/>
<path d="M337.389 524.5H262.167C261.278 524.5 260.556 523.722 260.667 522.833C261.833 513.278 269.222 505.722 278.722 504.333L292.111 502.389L297 497.278C298.111 496.111 299.667 495.444 301.278 495.444H309.889C312.278 495.444 314.444 496.889 315.389 499.056L316.333 501.278L326.944 501.167L332.167 498.056C333.611 497.222 335.444 497.944 335.889 499.556L341.278 519.389C341.944 522 340 524.5 337.389 524.5Z" fill="#2FE055" stroke="#17005E" stroke-width="1.5" stroke-miterlimit="10" stroke-linecap="round" stroke-linejoin="round"/>
<path d="M175.778 330.333L244.389 275.556H331.778L330.444 302.722C329.889 314.5 327.889 326.167 324.5 337.444L308.333 391.444L334.944 487.056H291.889L263.778 398.556C262.278 393.889 262 388.889 263 384.111L274.833 325.611L266.889 319.611L206.944 365.5V446.944H163.389V356.167C163.333 346.111 167.944 336.556 175.778 330.333Z" fill="#F48914" stroke="#17005E" stroke-width="1.5" stroke-miterlimit="10" stroke-linecap="round" stroke-linejoin="round"/>
<path d="M331.778 275.556L331.167 288L267.444 275.556H331.778Z" fill="#17005E" stroke="#17005E" stroke-width="1.5" stroke-miterlimit="10" stroke-linecap="round" stroke-linejoin="round"/>
<path d="M247.611 303.778L266.833 319.556L249.722 332.611L247.611 303.778Z" fill="#17005E" stroke="#17005E" stroke-width="1.5" stroke-miterlimit="10" stroke-linecap="round" stroke-linejoin="round"/>
<path d="M301.889 403.111L308.389 391.389L321.167 437.5L301.889 403.111Z" fill="#17005E" stroke="#17005E" stroke-width="1.5" stroke-miterlimit="10" stroke-linecap="round" stroke-linejoin="round"/>
<path d="M196.889 360.944L206.889 365.389V404.278L196.889 360.944Z" fill="#17005E" stroke="#17005E" stroke-width="1.5" stroke-miterlimit="10" stroke-linecap="round" stroke-linejoin="round"/>
<path d="M291.889 487H330.5L331.944 493.333L291.889 487Z" fill="#17005E" stroke="#17005E" stroke-width="1.5" stroke-miterlimit="10" stroke-linecap="round" stroke-linejoin="round"/>
<path d="M163.333 446.833L201.889 454.5V446.833H163.333Z" fill="#17005E" stroke="#17005E" stroke-width="1.5" stroke-miterlimit="10" stroke-linecap="round" stroke-linejoin="round"/>
<path d="M262.167 524.5C261.278 524.5 260.556 523.722 260.667 522.833C261.111 519 262.611 515.5 264.833 512.556H269.944L275.833 518.444H330.833L333.667 512.722L339.167 511.833L341.222 519.444C341.889 522 340 524.5 337.333 524.5H262.167Z" fill="#17005E" stroke="#17005E" stroke-width="1.5" stroke-miterlimit="10" stroke-linecap="round" stroke-linejoin="round"/>
<path d="M204.889 486.667H129.667C128.778 486.667 128.056 485.889 128.167 485C129.333 475.444 136.722 467.889 146.222 466.5L159.611 464.556L164.5 459.444C165.611 458.278 167.167 457.611 168.778 457.611H177.333C179.722 457.611 181.889 459.056 182.833 461.222L183.778 463.444L194.389 463.333L199.611 460.222C201.056 459.389 202.889 460.111 203.333 461.722L208.722 481.556C209.444 484.167 207.5 486.667 204.889 486.667Z" fill="#2FE055" stroke="#17005E" stroke-width="1.5" stroke-miterlimit="10" stroke-linecap="round" stroke-linejoin="round"/>
<path d="M129.667 486.667C128.778 486.667 128.056 485.889 128.167 485C128.611 481.167 130.111 477.667 132.333 474.722H137.444L143.333 480.611H198.333L201.167 474.889L206.667 474L208.722 481.611C209.389 484.167 207.5 486.667 204.833 486.667H129.667Z" fill="#17005E" stroke="#17005E" stroke-width="1.5" stroke-miterlimit="10" stroke-linecap="round" stroke-linejoin="round"/>
<path d="M268 374.167C277.222 382.389 275.667 397.278 265 403.444C264.556 403.722 264.167 403 264.611 402.778C274.889 396.833 276.278 382.611 267.444 374.722C267.055 374.389 267.611 373.833 268 374.167Z" fill="#17005E"/>
<path d="M177.889 330.222C178.556 336.444 178.056 343.333 175.333 349C173.333 353.167 169.722 357.056 164.722 356.722C164.222 356.667 164.222 355.889 164.722 355.944C170 356.278 173.556 351.556 175.278 347.167C177.333 341.833 177.722 335.833 177.111 330.222C177.056 329.722 177.833 329.722 177.889 330.222Z" fill="#17005E"/>
<path d="M323.722 281.278C323.722 281.278 323.611 281.944 323.333 283.167" stroke="#17005E" stroke-linecap="round" stroke-linejoin="round"/>
<path d="M322.556 287C320.833 295.556 317.111 313.5 311.389 339.167C302.278 379.889 301.944 403.111 301.944 403.111L320.722 483.222" stroke="#17005E" stroke-linecap="round" stroke-linejoin="round" stroke-dasharray="7 7"/>
<path d="M321.111 485.111L321.556 487" stroke="#17005E" stroke-linecap="round" stroke-linejoin="round"/>
<path d="M256.222 314.5L196.889 360.944L195.111 446.278" stroke="#17005E" stroke-miterlimit="10" stroke-linecap="round" stroke-linejoin="round" stroke-dasharray="7 7"/>
<path d="M311.111 281.278C310.444 288.056 313.278 294.778 318.722 298.889C319.111 299.167 318.722 299.889 318.333 299.556C312.722 295.278 309.667 288.333 310.333 281.278C310.389 280.778 311.167 280.778 311.111 281.278Z" fill="#17005E"/>
<path d="M281.5 278.278C277.556 284.833 274.5 291.944 272.444 299.278C270.444 306.333 269.722 313.722 266.833 320.556C266.611 321 265.944 320.611 266.167 320.167C269.222 313 269.889 305.167 272.111 297.778C274.167 290.778 277.167 284.111 280.889 277.889C281.111 277.444 281.778 277.833 281.5 278.278Z" fill="#17005E"/>
<path d="M274.667 277.278C271.556 282.333 265.167 292.889 272.278 297.389C272.722 297.667 272.333 298.333 271.889 298.056C264.278 293.222 270.611 282.278 274 276.889C274.278 276.444 274.944 276.833 274.667 277.278Z" fill="#17005E"/>
<path d="M167.611 300.944H411.889C414.667 300.944 416.889 298.722 416.889 295.944V64.5C416.889 61.7222 414.667 59.5 411.889 59.5H167.611C164.833 59.5 162.611 61.7222 162.611 64.5V295.944C162.611 298.722 164.889 300.944 167.611 300.944Z" stroke="#17005E" stroke-width="3" stroke-miterlimit="10" stroke-linecap="round" stroke-linejoin="round"/>
<path d="M416.889 84.5H162.611" stroke="#17005E" stroke-width="1.5" stroke-miterlimit="10" stroke-linecap="round" stroke-linejoin="round"/>
<path d="M185.833 77.5556H195.556C196.167 77.5556 196.611 77.0556 196.611 76.5V66.7778C196.611 66.1667 196.111 65.7222 195.556 65.7222H185.833C185.222 65.7222 184.778 66.2222 184.778 66.7778V76.5C184.722 77.0556 185.222 77.5556 185.833 77.5556Z" fill="#F5A3D2" stroke="#17005E" stroke-width="1.5" stroke-miterlimit="10" stroke-linecap="round" stroke-linejoin="round"/>
<path d="M189.611 70.5556H194V74.9444H189.611V70.5556Z" fill="#F5A3D2" stroke="#17005E" stroke-width="1.5" stroke-miterlimit="10" stroke-linecap="round" stroke-linejoin="round"/>
<path d="M187.333 68.3333V72.6667H189.611V70.5556H191.722V68.3333H187.333Z" fill="#F5A3D2" stroke="#17005E" stroke-width="1.5" stroke-miterlimit="10" stroke-linecap="round" stroke-linejoin="round"/>
<path d="M201.5 77.5556H211.222C211.833 77.5556 212.278 77.0556 212.278 76.5V66.7778C212.278 66.1667 211.778 65.7222 211.222 65.7222H201.5C200.889 65.7222 200.445 66.2222 200.445 66.7778V76.5C200.389 77.0556 200.889 77.5556 201.5 77.5556Z" fill="#F5A3D2" stroke="#17005E" stroke-width="1.5" stroke-miterlimit="10" stroke-linecap="round" stroke-linejoin="round"/>
<path d="M210.111 74.3333H202.556" stroke="#17005E" stroke-width="1.5" stroke-miterlimit="10" stroke-linecap="round" stroke-linejoin="round"/>
<path d="M170.167 77.5556H179.889C180.5 77.5556 180.944 77.0556 180.944 76.5V66.7778C180.944 66.1667 180.444 65.7222 179.889 65.7222H170.167C169.556 65.7222 169.111 66.2222 169.111 66.7778V76.5C169.056 77.0556 169.556 77.5556 170.167 77.5556Z" fill="#F5A3D2" stroke="#17005E" stroke-width="1.5" stroke-miterlimit="10" stroke-linecap="round" stroke-linejoin="round"/>
<path d="M178.944 67.6667L171.056 75.6111" stroke="#17005E" stroke-width="1.5" stroke-miterlimit="10" stroke-linecap="round" stroke-linejoin="round"/>
<path d="M171.056 67.6667L178.944 75.6111" stroke="#17005E" stroke-width="1.5" stroke-miterlimit="10" stroke-linecap="round" stroke-linejoin="round"/>
<path d="M403.278 323.444H326.889C325.389 323.444 324.167 322.222 324.167 320.722V312.778C324.167 311.278 325.389 310.056 326.889 310.056H403.278C404.778 310.056 406 311.278 406 312.778V320.722C406 322.222 404.778 323.444 403.278 323.444Z" fill="#82EC99" stroke="#17005E" stroke-width="1.5" stroke-miterlimit="10" stroke-linecap="round" stroke-linejoin="round"/>
<path d="M345.833 321.5H324.167V311.944H345.833C347.056 311.944 348.111 312.944 348.111 314.222V319.222C348.056 320.5 347.056 321.5 345.833 321.5Z" fill="#DEFAE5" stroke="#17005E" stroke-width="1.5" stroke-miterlimit="10" stroke-linecap="round" stroke-linejoin="round"/>
<path d="M401.488 321.499H397.765V311.944H401.488V321.499Z" fill="#F48914" stroke="#17005E" stroke-width="1.5" stroke-miterlimit="10" stroke-linecap="round" stroke-linejoin="round"/>
<path d="M356.034 321.499H352.311V311.944H356.034V321.499Z" fill="#17005E" stroke="#17005E" stroke-width="1.5" stroke-miterlimit="10" stroke-linecap="round" stroke-linejoin="round"/>
<path d="M324.167 313.833H348.056" stroke="#17005E" stroke-width="1.5" stroke-miterlimit="10" stroke-linecap="round" stroke-linejoin="round"/>
<path d="M324.167 315.722H348.056" stroke="#17005E" stroke-width="1.5" stroke-miterlimit="10" stroke-linecap="round" stroke-linejoin="round"/>
<path d="M324.167 317.556H348.056" stroke="#17005E" stroke-width="1.5" stroke-miterlimit="10" stroke-linecap="round" stroke-linejoin="round"/>
<path d="M324.167 319.389H348.056" stroke="#17005E" stroke-width="1.5" stroke-miterlimit="10" stroke-linecap="round" stroke-linejoin="round"/>
<path d="M340.389 314.111V319L342.889 317.111L345.444 319V313.944H340.389" fill="#E556A8"/>
<path d="M340.389 314.111V319L342.889 317.111L345.444 319V313.944H340.389" stroke="#17005E" stroke-width="1.5" stroke-miterlimit="10" stroke-linecap="round" stroke-linejoin="round"/>
<path d="M400.111 310H323.722C322.222 310 321 308.778 321 307.278V293.944C321 292.444 322.222 291.222 323.722 291.222H400.111C401.611 291.222 402.833 292.444 402.833 293.944V307.278C402.833 308.778 401.611 310 400.111 310Z" fill="#17005E" stroke="#17005E" stroke-width="1.5" stroke-miterlimit="10" stroke-linecap="round" stroke-linejoin="round"/>
<path d="M332.5 307.278H320.945V293.944H332.5C333.722 293.944 334.778 294.944 334.778 296.222V305.056C334.778 306.278 333.778 307.278 332.5 307.278Z" fill="#DEFAE5" stroke="#17005E" stroke-width="1.5" stroke-miterlimit="10" stroke-linecap="round" stroke-linejoin="round"/>
<path d="M398.331 307.263H394.609V293.93H398.331V307.263Z" fill="#FDE7D0" stroke="#17005E" stroke-width="1.5" stroke-miterlimit="10" stroke-linecap="round" stroke-linejoin="round"/>
<path d="M390.573 303.541H339.351V297.708H390.573V303.541Z" fill="#EF76BB" stroke="#17005E" stroke-width="1.5" stroke-miterlimit="10" stroke-linecap="round" stroke-linejoin="round"/>
<path d="M320.945 296.611H334.778" stroke="#17005E" stroke-width="1.5" stroke-miterlimit="10" stroke-linecap="round" stroke-linejoin="round"/>
<path d="M320.945 299.167H334.778" stroke="#17005E" stroke-width="1.5" stroke-miterlimit="10" stroke-linecap="round" stroke-linejoin="round"/>
<path d="M320.945 301.778H334.778" stroke="#17005E" stroke-width="1.5" stroke-miterlimit="10" stroke-linecap="round" stroke-linejoin="round"/>
<path d="M320.945 304.333H334.778" stroke="#17005E" stroke-width="1.5" stroke-miterlimit="10" stroke-linecap="round" stroke-linejoin="round"/>
<path d="M326.389 296.389V301.833L328.944 299.778L331.5 301.833V296.222H326.389" fill="#F48914"/>
<path d="M326.389 296.389V301.833L328.944 299.778L331.5 301.833V296.222H326.389" stroke="#17005E" stroke-width="1.5" stroke-miterlimit="10" stroke-linecap="round" stroke-linejoin="round"/>
<path d="M405.056 291.222H328.667C327.167 291.222 325.944 290 325.944 288.5V280.833C325.944 279.333 327.167 278.111 328.667 278.111H405.056C406.556 278.111 407.778 279.333 407.778 280.833V288.444C407.778 290 406.556 291.222 405.056 291.222Z" fill="#F48914" stroke="#17005E" stroke-width="1.5" stroke-miterlimit="10" stroke-linecap="round" stroke-linejoin="round"/>
<path d="M347.611 289.333H325.944V280H347.611C348.833 280 349.889 281 349.889 282.278V287.056C349.889 288.278 348.833 289.333 347.611 289.333Z" fill="#DEFAE5" stroke="#17005E" stroke-width="1.5" stroke-miterlimit="10" stroke-linecap="round" stroke-linejoin="round"/>
<path d="M354.111 282.278H395.556V287.056H354.111V282.278Z" fill="#8636CC" stroke="#17005E" stroke-width="1.5" stroke-miterlimit="10" stroke-linecap="round" stroke-linejoin="round"/>
<path d="M399.833 283.111H403V286.222H399.833V283.111Z" fill="#E556A8" stroke="#17005E" stroke-width="1.5" stroke-miterlimit="10" stroke-linecap="round" stroke-linejoin="round"/>
<path d="M325.944 281.833H349.889" stroke="#17005E" stroke-width="1.5" stroke-miterlimit="10" stroke-linecap="round" stroke-linejoin="round"/>
<path d="M325.944 283.667H349.889" stroke="#17005E" stroke-width="1.5" stroke-miterlimit="10" stroke-linecap="round" stroke-linejoin="round"/>
<path d="M325.944 285.444H349.889" stroke="#17005E" stroke-width="1.5" stroke-miterlimit="10" stroke-linecap="round" stroke-linejoin="round"/>
<path d="M325.944 287.278H349.889" stroke="#17005E" stroke-width="1.5" stroke-miterlimit="10" stroke-linecap="round" stroke-linejoin="round"/>
<path d="M336.167 287.389V291.167L333.611 289.722L331.111 291.167V287.222H336.167" fill="#E556A8"/>
<path d="M336.167 287.389V291.167L333.611 289.722L331.111 291.167V287.222H336.167" stroke="#17005E" stroke-width="1.5" stroke-miterlimit="10" stroke-linecap="round" stroke-linejoin="round"/>
<path d="M354.944 308.333L347.778 317.722C346.722 319.111 346.611 321.056 347.556 322.556C349.111 325.056 352.611 325.389 354.611 323.333L360.444 317.278L354.944 308.333Z" fill="#E556A8" stroke="#17005E" stroke-width="1.5" stroke-miterlimit="10" stroke-linecap="round" stroke-linejoin="round"/>
<path d="M351.222 313.167L354.944 308.333L360.5 317.278L355.722 322.222L351.222 313.167Z" fill="#17005E" stroke="#17005E" stroke-width="1.5" stroke-miterlimit="10" stroke-linecap="round" stroke-linejoin="round"/>
<path d="M358.722 292.889L353.722 216.444L367.278 182L380.778 192.222C389.111 198.556 393.111 209.056 391 219.333L375.833 294L377.222 294.667C379.889 296 381.667 298.722 381.833 301.667L382.667 318.222L366.611 323.056L373.889 332.111L373.056 332.667C370.278 334.444 366.667 334.333 364.056 332.278L359.611 328.833C357.556 327.167 356.222 324.833 355.778 322.222L354.167 312.056C353.889 310.444 354 308.833 354.5 307.278L358.722 292.889Z" fill="#E556A8" stroke="#17005E" stroke-width="1.5" stroke-miterlimit="10" stroke-linecap="round" stroke-linejoin="round"/>
<path d="M353.722 216.5L380.778 192.222L375.778 188.722L353.722 216.5Z" fill="#17005E" stroke="#17005E" stroke-width="1.5" stroke-miterlimit="10" stroke-linecap="round" stroke-linejoin="round"/>
<path d="M364.278 322.056L372.833 332.111C373.833 333.278 375.333 333.778 376.833 333.444C379.444 332.833 380.722 329.889 379.444 327.556L374.667 319.056" fill="#E556A8"/>
<path d="M364.278 322.056L372.833 332.111C373.833 333.278 375.333 333.778 376.833 333.444C379.444 332.833 380.722 329.889 379.444 327.556L374.667 319.056" stroke="#17005E" stroke-width="1.5" stroke-miterlimit="10" stroke-linecap="round" stroke-linejoin="round"/>
<path d="M382.556 316.889L385.444 323.944L386.833 322.944C388.111 322 389.889 322.167 391 323.278C392.333 324.611 392.222 326.833 390.778 328.056L389 329.556C387.5 330.778 385.611 331.444 383.667 331.278C381.167 331.111 378.889 329.667 377.722 327.444L372.611 317.944" fill="#E556A8"/>
<path d="M382.556 316.889L385.444 323.944L386.833 322.944C388.111 322 389.889 322.167 391 323.278C392.333 324.611 392.222 326.833 390.778 328.056L389 329.556C387.5 330.778 385.611 331.444 383.667 331.278C381.167 331.111 378.889 329.667 377.722 327.444L372.611 317.944" stroke="#17005E" stroke-width="1.5" stroke-miterlimit="10" stroke-linecap="round" stroke-linejoin="round"/>
<path d="M380.722 270.056L375.833 294L371.889 291.5L380.722 270.056Z" fill="#17005E" stroke="#17005E" stroke-width="1.5" stroke-miterlimit="10" stroke-linecap="round" stroke-linejoin="round"/>
<path d="M128.944 157V164H112.444C110.5 164 108.944 162.444 108.944 160.5C108.944 158.556 110.5 157 112.444 157H128.944Z" fill="#E556A8" stroke="#17005E" stroke-width="1.5" stroke-miterlimit="10" stroke-linecap="round" stroke-linejoin="round"/>
<path d="M134.222 157V164H117.667C115.722 164 114.167 162.444 114.167 160.5C114.167 158.556 115.722 157 117.667 157H134.222Z" fill="#E556A8" stroke="#17005E" stroke-width="1.5" stroke-miterlimit="10" stroke-linecap="round" stroke-linejoin="round"/>
<path d="M167.278 159.889L161.222 148.222C160.444 146.722 158.944 145.833 157.222 145.833H146.278C144.556 145.833 143.167 147.222 143.167 148.944C143.167 150.667 144.556 152.056 146.278 152.056H151.722C151.722 156.333 155.167 159.778 159.389 159.833L167.278 159.889Z" fill="#E556A8" stroke="#17005E" stroke-width="1.5" stroke-miterlimit="10" stroke-linecap="round" stroke-linejoin="round"/>
<path d="M123.944 157H162.833C165.722 157 168.556 157.833 170.944 159.389L223.5 193.444L253.5 213.278L231.667 230.111C225.556 234.833 216.778 234.111 211.5 228.5L157.056 170.333C151.167 168.444 142.056 165.5 137.556 164H124C122.056 164 120.5 162.444 120.5 160.5C120.5 158.556 122.056 157 123.944 157Z" fill="#E556A8" stroke="#17005E" stroke-width="1.5" stroke-miterlimit="10" stroke-linecap="round" stroke-linejoin="round"/>
<path d="M223.5 193.444L251.222 214.5L245.056 219.444L223.5 193.444Z" fill="#17005E" stroke="#17005E" stroke-width="1.5" stroke-miterlimit="10" stroke-linecap="round" stroke-linejoin="round"/>
<path d="M157.056 170.278L173 177L176.611 191.167L157.056 170.278Z" fill="#17005E" stroke="#17005E" stroke-width="1.5" stroke-miterlimit="10" stroke-linecap="round" stroke-linejoin="round"/>
<path d="M223.5 193.444L253.5 160.833C259.389 154.444 267.722 150.778 276.389 150.778H321.611C328.222 150.778 334.611 152.889 339.944 156.778L374.889 182.278C376.944 183.778 377.333 186.722 375.778 188.722L353.722 216.444L331.833 200.611V275.5H244.444L253.056 216.778L223.5 193.444Z" fill="#8636CC" stroke="#17005E" stroke-width="1.5" stroke-miterlimit="10" stroke-linecap="round" stroke-linejoin="round"/>
<path d="M279.778 150.833H306.556C306.445 158.111 300.5 164 293.167 164C285.833 164 279.889 158.111 279.778 150.833Z" fill="#17005E" stroke="#17005E" stroke-width="1.5" stroke-miterlimit="10" stroke-linecap="round" stroke-linejoin="round"/>
<path d="M253.056 216.778L258.722 180.222L248 204.5L253.056 216.778Z" fill="#17005E" stroke="#17005E" stroke-width="1.5" stroke-miterlimit="10" stroke-linecap="round" stroke-linejoin="round"/>
<path d="M331.778 200.667L325.5 176.667L353.722 216.5L331.778 200.667Z" fill="#17005E" stroke="#17005E" stroke-width="1.5" stroke-miterlimit="10" stroke-linecap="round" stroke-linejoin="round"/>
<path d="M310.278 173.5C308.667 173.5 307.056 173.5 305.444 173.5C304.944 173.5 304.944 172.722 305.444 172.722C307.056 172.722 308.667 172.722 310.278 172.722C310.833 172.722 310.833 173.5 310.278 173.5Z" fill="#17005E"/>
<path d="M296.222 179.5C296.222 181.111 296.222 182.722 296.222 184.333C296.222 184.833 295.444 184.833 295.444 184.333C295.444 182.722 295.444 181.111 295.444 179.5C295.444 179 296.222 179 296.222 179.5Z" fill="#17005E"/>
<path d="M306.944 191.833C306.944 192.889 306.944 194 306.944 195.056C306.944 195.556 306.167 195.556 306.167 195.056C306.167 194 306.167 192.889 306.167 191.833C306.167 191.333 306.944 191.333 306.944 191.833Z" fill="#17005E"/>
<path d="M314.889 199.056C316.167 200.333 317.389 201.556 318.667 202.833C319 203.167 318.444 203.722 318.111 203.389C316.833 202.111 315.611 200.889 314.333 199.611C313.944 199.278 314.5 198.722 314.889 199.056Z" fill="#17005E"/>
<path d="M307.889 212.444C306.278 214.056 304.667 215.667 303.056 217.278C302.722 217.611 302.167 217.056 302.5 216.722C304.111 215.111 305.722 213.5 307.333 211.889C307.722 211.556 308.278 212.111 307.889 212.444Z" fill="#17005E"/>
<path d="M293.556 208.444C293.556 209.889 293.556 211.278 293.556 212.722C293.556 213.222 292.778 213.222 292.778 212.722C292.778 211.278 292.778 209.889 292.778 208.444C292.778 207.944 293.556 207.944 293.556 208.444Z" fill="#17005E"/>
<path d="M280.556 202.833C279.111 204.278 277.722 205.667 276.278 207.111C275.944 207.444 275.389 206.889 275.722 206.556C277.167 205.111 278.556 203.722 280 202.278C280.389 201.944 280.944 202.444 280.556 202.833Z" fill="#17005E"/>
<path d="M272 194.778C271.444 195.333 270.945 195.833 270.389 196.389C270.056 196.722 269.5 196.167 269.833 195.833C270.389 195.278 270.889 194.778 271.444 194.222C271.833 193.889 272.389 194.444 272 194.778Z" fill="#17005E"/>
<path d="M270.389 181.944C269.333 180.889 268.222 179.778 267.167 178.722C266.833 178.389 267.389 177.833 267.722 178.167C268.778 179.222 269.889 180.333 270.944 181.389C271.278 181.722 270.722 182.278 270.389 181.944Z" fill="#17005E"/>
<path d="M268.778 168C268.222 167.444 267.722 166.944 267.167 166.389C266.833 166.056 267.389 165.5 267.722 165.833C268.278 166.389 268.778 166.889 269.333 167.444C269.667 167.833 269.111 168.333 268.778 168Z" fill="#17005E"/>
<path d="M261.833 159.944C260.944 160.833 260.056 161.722 259.167 162.611C258.833 162.944 258.278 162.389 258.611 162.056C259.5 161.167 260.389 160.278 261.278 159.389C261.611 159.056 262.167 159.611 261.833 159.944Z" fill="#17005E"/>
<path d="M255 170.944C255 172 255 173.111 255 174.167C255 174.667 254.222 174.667 254.222 174.167C254.222 173.111 254.222 172 254.222 170.944C254.222 170.444 255 170.444 255 170.944Z" fill="#17005E"/>
<path d="M274.389 171.611C275.667 171.611 276.889 171.611 278.167 171.611C278.667 171.611 278.667 172.389 278.167 172.389C276.889 172.389 275.667 172.389 274.389 172.389C273.889 172.389 273.889 171.611 274.389 171.611Z" fill="#17005E"/>
<path d="M283.389 182.722C283.389 183.778 283.389 184.889 283.389 185.944C283.389 186.444 282.611 186.444 282.611 185.944C282.611 184.889 282.611 183.778 282.611 182.722C282.611 182.222 283.389 182.222 283.389 182.722Z" fill="#17005E"/>
<path d="M293.944 170.667C294.833 169.778 295.722 168.889 296.611 168C296.944 167.667 297.5 168.222 297.167 168.556C296.278 169.444 295.389 170.333 294.5 171.222C294.167 171.556 293.611 171 293.944 170.667Z" fill="#17005E"/>
<path d="M310.556 161C311.111 160.444 311.611 159.944 312.167 159.389C312.5 159.056 313.056 159.611 312.722 159.944C312.167 160.5 311.667 161 311.111 161.556C310.778 161.944 310.222 161.389 310.556 161Z" fill="#17005E"/>
<path d="M323 163.444C323 164.167 323 164.889 323 165.611C323 166.111 322.222 166.111 322.222 165.611C322.222 164.889 322.222 164.167 322.222 163.444C322.222 162.944 323 162.944 323 163.444Z" fill="#17005E"/>
<path d="M320.722 156.222C319.833 155.333 318.944 154.444 318.056 153.556C317.722 153.222 318.278 152.667 318.611 153C319.5 153.889 320.389 154.778 321.278 155.667C321.667 156 321.111 156.556 320.722 156.222Z" fill="#17005E"/>
<path d="M334.278 160.222C334.278 161.278 334.278 162.389 334.278 163.444C334.278 163.944 333.5 163.944 333.5 163.444C333.5 162.389 333.5 161.278 333.5 160.222C333.5 159.722 334.278 159.722 334.278 160.222Z" fill="#17005E"/>
<path d="M343.389 168.778C343.389 170.944 343.389 173.056 343.389 175.222C343.389 175.722 342.611 175.722 342.611 175.222C342.611 173.056 342.611 170.944 342.611 168.778C342.611 168.278 343.389 168.278 343.389 168.778Z" fill="#17005E"/>
<path d="M356.111 177.111C357 178 357.889 178.889 358.778 179.778C359.111 180.111 358.556 180.667 358.222 180.333C357.333 179.444 356.445 178.556 355.556 177.667C355.222 177.278 355.778 176.722 356.111 177.111Z" fill="#17005E"/>
<path d="M352.389 187.833C351.833 188.389 351.333 188.889 350.778 189.444C350.444 189.778 349.889 189.222 350.222 188.889C350.778 188.333 351.278 187.833 351.833 187.278C352.167 186.944 352.722 187.444 352.389 187.833Z" fill="#17005E"/>
<path d="M354.611 199.333C354.611 200.944 354.611 202.556 354.611 204.167C354.611 204.667 353.833 204.667 353.833 204.167C353.833 202.556 353.833 200.944 353.833 199.333C353.833 198.833 354.611 198.833 354.611 199.333Z" fill="#17005E"/>
<path d="M362.556 188.333C363.444 187.444 364.333 186.556 365.222 185.667C365.556 185.333 366.111 185.889 365.778 186.222C364.889 187.111 364 188 363.111 188.889C362.722 189.278 362.167 188.722 362.556 188.333Z" fill="#17005E"/>
<path d="M370.278 185C371.333 185 372.444 185 373.5 185C374 185 374 185.778 373.5 185.778C372.444 185.778 371.333 185.778 370.278 185.778C369.778 185.778 369.778 185 370.278 185Z" fill="#17005E"/>
<path d="M362.111 194.5C362.111 195.556 362.111 196.667 362.111 197.722C362.111 198.222 361.333 198.222 361.333 197.722C361.333 196.667 361.333 195.556 361.333 194.5C361.333 194 362.111 194 362.111 194.5Z" fill="#17005E"/>
<path d="M340.833 187.944C340.111 187.944 339.389 187.944 338.667 187.944C338.167 187.944 338.167 187.167 338.667 187.167C339.389 187.167 340.111 187.167 340.833 187.167C341.333 187.167 341.333 187.944 340.833 187.944Z" fill="#17005E"/>
<path d="M349 170.944C349 170.222 349 169.5 349 168.778C349 168.278 349.778 168.278 349.778 168.778C349.778 169.5 349.778 170.222 349.778 170.944C349.778 171.444 349 171.444 349 170.944Z" fill="#17005E"/>
<path d="M332.278 173.5C331.389 173.5 330.5 173.5 329.611 173.5C329.111 173.5 329.111 172.722 329.611 172.722C330.5 172.722 331.389 172.722 332.278 172.722C332.778 172.722 332.778 173.5 332.278 173.5Z" fill="#17005E"/>
<path d="M318.056 185.667C318.611 186.222 319.111 186.722 319.667 187.278C320 187.611 319.444 188.167 319.111 187.833C318.556 187.278 318.056 186.778 317.5 186.222C317.167 185.889 317.722 185.333 318.056 185.667Z" fill="#17005E"/>
<path d="M328.389 210.611C328.389 212.556 328.389 214.556 328.389 216.5C328.389 217 327.611 217 327.611 216.5C327.611 214.556 327.611 212.556 327.611 210.611C327.611 210.111 328.389 210.111 328.389 210.611Z" fill="#17005E"/>
<path d="M320.222 222.111C319.5 222.833 318.778 223.556 318.056 224.278C317.722 224.611 317.167 224.056 317.5 223.722C318.222 223 318.944 222.278 319.667 221.556C320.056 221.222 320.556 221.778 320.222 222.111Z" fill="#17005E"/>
<path d="M320.333 233.611C320.333 235.056 320.333 236.444 320.333 237.889C320.333 238.389 319.556 238.389 319.556 237.889C319.556 236.444 319.556 235.056 319.556 233.611C319.556 233.111 320.333 233.111 320.333 233.611Z" fill="#17005E"/>
<path d="M317 244.056C316.444 244.611 315.944 245.111 315.389 245.667C315.056 246 314.5 245.444 314.833 245.111C315.389 244.556 315.889 244.056 316.444 243.5C316.833 243.167 317.389 243.722 317 244.056Z" fill="#17005E"/>
<path d="M304.944 240.444C304.056 240.444 303.167 240.444 302.278 240.444C301.778 240.444 301.778 239.667 302.278 239.667C303.167 239.667 304.056 239.667 304.944 239.667C305.444 239.667 305.444 240.444 304.944 240.444Z" fill="#17005E"/>
<path d="M305.222 227.444C304.167 228.5 303.056 229.611 302 230.667C301.667 231 301.111 230.444 301.444 230.111C302.5 229.056 303.611 227.944 304.667 226.889C305.056 226.556 305.556 227.111 305.222 227.444Z" fill="#17005E"/>
<path d="M293.722 226.5C292.833 226.5 291.944 226.5 291.056 226.5C290.556 226.5 290.556 225.722 291.056 225.722C291.944 225.722 292.833 225.722 293.722 225.722C294.222 225.722 294.222 226.5 293.722 226.5Z" fill="#17005E"/>
<path d="M283.889 221.278C283.889 223.056 283.889 224.833 283.889 226.611C283.889 227.111 283.111 227.111 283.111 226.611C283.111 224.833 283.111 223.056 283.111 221.278C283.111 220.778 283.889 220.778 283.889 221.278Z" fill="#17005E"/>
<path d="M274.778 228.778C274.778 230.056 274.778 231.278 274.778 232.556C274.778 233.056 274 233.056 274 232.556C274 231.278 274 230.056 274 228.778C274 228.278 274.778 228.278 274.778 228.778Z" fill="#17005E"/>
<path d="M286.722 240.444C285.444 240.444 284.222 240.444 282.944 240.444C282.444 240.444 282.444 239.667 282.944 239.667C284.222 239.667 285.444 239.667 286.722 239.667C287.222 239.667 287.222 240.444 286.722 240.444Z" fill="#17005E"/>
<path d="M269.333 219.944C268.611 220.667 267.889 221.389 267.167 222.111C266.833 222.444 266.278 221.889 266.611 221.556C267.333 220.833 268.056 220.111 268.778 219.389C269.111 219.056 269.667 219.611 269.333 219.944Z" fill="#17005E"/>
<path d="M260.222 213.556C259.889 213.889 259.5 214.278 259.167 214.611C258.833 214.944 258.278 214.389 258.611 214.056C258.944 213.722 259.333 213.333 259.667 213C260.056 212.611 260.556 213.167 260.222 213.556Z" fill="#17005E"/>
<path d="M327.278 237.889C327.278 238.611 327.278 239.333 327.278 240.056C327.278 240.556 326.5 240.556 326.5 240.056C326.5 239.333 326.5 238.611 326.5 237.889C326.5 237.389 327.278 237.389 327.278 237.889Z" fill="#17005E"/>
<path d="M328.5 252.778C326.722 252.778 324.944 252.778 323.167 252.778C322.667 252.778 322.667 252 323.167 252C324.944 252 326.722 252 328.5 252C329 252 329 252.778 328.5 252.778Z" fill="#17005E"/>
<path d="M327.833 260.389C327.833 261.444 327.833 262.556 327.833 263.611C327.833 264.111 327.056 264.111 327.056 263.611C327.056 262.556 327.056 261.444 327.056 260.389C327.056 259.889 327.833 259.889 327.833 260.389Z" fill="#17005E"/>
<path d="M323.444 266.556C322.722 265.833 322 265.111 321.278 264.389C320.944 264.056 321.5 263.5 321.833 263.833C322.556 264.556 323.278 265.278 324 266C324.333 266.389 323.778 266.944 323.444 266.556Z" fill="#17005E"/>
<path d="M310.056 260.167C309.333 260.889 308.611 261.611 307.889 262.333C307.556 262.667 307 262.111 307.333 261.778C308.056 261.056 308.778 260.333 309.5 259.611C309.833 259.222 310.389 259.778 310.056 260.167Z" fill="#17005E"/>
<path d="M328.389 272.722C328.389 273.278 328.389 273.778 328.389 274.333C328.389 274.833 327.611 274.833 327.611 274.333C327.611 273.778 327.611 273.278 327.611 272.722C327.611 272.222 328.389 272.222 328.389 272.722Z" fill="#17005E"/>
<path d="M315.111 271C313.833 271 312.611 271 311.333 271C310.833 271 310.833 270.222 311.333 270.222C312.611 270.222 313.833 270.222 315.111 270.222C315.611 270.222 315.611 271 315.111 271Z" fill="#17005E"/>
<path d="M297.056 272.722C297.056 271.444 297.056 270.222 297.056 268.944C297.056 268.444 297.833 268.444 297.833 268.944C297.833 270.222 297.833 271.444 297.833 272.722C297.833 273.222 297.056 273.222 297.056 272.722Z" fill="#17005E"/>
<path d="M291.278 261.222C289.667 262.833 288.056 264.444 286.444 266.056C286.111 266.389 285.556 265.833 285.889 265.5C287.5 263.889 289.111 262.278 290.722 260.667C291.111 260.333 291.667 260.889 291.278 261.222Z" fill="#17005E"/>
<path d="M276.833 268.167C276.278 267.611 275.778 267.111 275.222 266.556C274.889 266.222 275.444 265.667 275.778 266C276.333 266.556 276.833 267.056 277.389 267.611C277.722 268 277.167 268.556 276.833 268.167Z" fill="#17005E"/>
<path d="M266.111 258C265.389 258.722 264.667 259.444 263.944 260.167C263.611 260.5 263.056 259.944 263.389 259.611C264.111 258.889 264.833 258.167 265.556 257.444C265.944 257.111 266.444 257.667 266.111 258Z" fill="#17005E"/>
<path d="M304.111 250.5C302.833 249.222 301.611 248 300.333 246.722C300 246.389 300.556 245.833 300.889 246.167C302.167 247.444 303.389 248.667 304.667 249.944C305.056 250.333 304.5 250.833 304.111 250.5Z" fill="#17005E"/>
<path d="M297.278 250.778C297.278 252.056 297.278 253.278 297.278 254.556C297.278 255.056 296.5 255.056 296.5 254.556C296.5 253.278 296.5 252.056 296.5 250.778C296.5 250.278 297.278 250.278 297.278 250.778Z" fill="#17005E"/>
<path d="M288.889 252.222C287.833 252.222 286.722 252.222 285.667 252.222C285.167 252.222 285.167 251.444 285.667 251.444C286.722 251.444 287.833 251.444 288.889 251.444C289.389 251.444 289.389 252.222 288.889 252.222Z" fill="#17005E"/>
<path d="M276.833 248.389C276.278 248.944 275.778 249.444 275.222 250C274.889 250.333 274.333 249.778 274.667 249.444C275.222 248.889 275.722 248.389 276.278 247.833C276.611 247.444 277.167 248 276.833 248.389Z" fill="#17005E"/>
<path d="M265.056 242.444C264.333 243.167 263.611 243.889 262.889 244.611C262.556 244.944 262 244.389 262.333 244.056C263.056 243.333 263.778 242.611 264.5 241.889C264.833 241.556 265.389 242.111 265.056 242.444Z" fill="#17005E"/>
<path d="M258.889 234.556C257.444 234.556 256.056 234.556 254.611 234.556C254.111 234.556 254.111 233.778 254.611 233.778C256.056 233.778 257.444 233.778 258.889 233.778C259.389 233.778 259.389 234.556 258.889 234.556Z" fill="#17005E"/>
<path d="M260.722 206.056C260.167 205.5 259.667 205 259.111 204.444C258.778 204.111 259.333 203.556 259.667 203.889C260.222 204.444 260.722 204.944 261.278 205.5C261.667 205.833 261.111 206.389 260.722 206.056Z" fill="#17005E"/>
<path d="M290.778 193.722C292.222 195.167 293.611 196.556 295.056 198C295.389 198.333 294.833 198.889 294.5 198.556C293.056 197.111 291.667 195.722 290.222 194.278C289.833 193.889 290.389 193.333 290.778 193.722Z" fill="#17005E"/>
<path d="M305.222 179.222C306.5 180.5 307.722 181.722 309 183C309.333 183.333 308.778 183.889 308.444 183.556C307.167 182.278 305.944 181.056 304.667 179.778C304.333 179.444 304.889 178.889 305.222 179.222Z" fill="#17005E"/>
<path d="M318.056 172.278C318.389 172.611 318.778 173 319.111 173.333C319.444 173.667 318.889 174.222 318.556 173.889C318.222 173.556 317.833 173.167 317.5 172.833C317.167 172.444 317.722 171.944 318.056 172.278Z" fill="#17005E"/>
<path d="M276.722 161.278C276.722 159.833 276.722 158.444 276.722 157C276.722 156.5 277.5 156.5 277.5 157C277.5 158.444 277.5 159.833 277.5 161.278C277.5 161.778 276.722 161.778 276.722 161.278Z" fill="#17005E"/>
<path d="M270.389 155.167C270.056 154.833 269.667 154.444 269.333 154.111C269 153.778 269.556 153.222 269.889 153.556C270.222 153.889 270.611 154.278 270.944 154.611C271.278 154.944 270.722 155.5 270.389 155.167Z" fill="#17005E"/>
<path d="M247.889 180.833C248.444 181.389 248.944 181.889 249.5 182.444C249.833 182.778 249.278 183.333 248.944 183C248.389 182.444 247.889 181.944 247.333 181.389C247 181.056 247.556 180.5 247.889 180.833Z" fill="#17005E"/>
<path d="M240.944 179.278C240.611 179.611 240.222 180 239.889 180.333C239.556 180.667 239 180.111 239.333 179.778C239.667 179.444 240.056 179.056 240.389 178.722C240.722 178.333 241.278 178.889 240.944 179.278Z" fill="#17005E"/>
<path d="M247.389 170.111C247.722 170.444 248.111 170.833 248.444 171.167C248.778 171.5 248.222 172.056 247.889 171.722C247.556 171.389 247.167 171 246.833 170.667C246.444 170.333 247 169.778 247.389 170.111Z" fill="#17005E"/>
<path d="M242.278 189.278C243.556 189.278 244.778 189.278 246.056 189.278C246.556 189.278 246.556 190.056 246.056 190.056C244.778 190.056 243.556 190.056 242.278 190.056C241.778 190.111 241.778 189.278 242.278 189.278Z" fill="#17005E"/>
<path d="M243.056 196.389C242.722 196.722 242.333 197.111 242 197.444C241.667 197.778 241.111 197.222 241.444 196.889C241.778 196.556 242.167 196.167 242.5 195.833C242.889 195.5 243.444 196.056 243.056 196.389Z" fill="#17005E"/>
<path d="M242.556 203.333C243.278 204.056 244 204.778 244.722 205.5C245.056 205.833 244.5 206.389 244.167 206.056C243.444 205.333 242.722 204.611 242 203.889C241.667 203.556 242.167 203 242.556 203.333Z" fill="#17005E"/>
<path d="M232.778 194.5C232.778 193.222 232.778 192 232.778 190.722C232.778 190.222 233.556 190.222 233.556 190.722C233.556 192 233.556 193.222 233.556 194.5C233.556 195 232.778 195 232.778 194.5Z" fill="#17005E"/>
<path d="M229.667 192.667C229.333 193 228.944 193.389 228.611 193.722C228.278 194.056 227.722 193.5 228.056 193.167C228.389 192.833 228.778 192.444 229.111 192.111C229.5 191.722 230.056 192.278 229.667 192.667Z" fill="#17005E"/>
<path d="M253.389 256.111C253.389 256.833 253.389 257.556 253.389 258.278C253.389 258.778 252.611 258.778 252.611 258.278C252.611 257.556 252.611 256.833 252.611 256.111C252.611 255.611 253.389 255.611 253.389 256.111Z" fill="#17005E"/>
<path d="M258.611 266.556C258.056 267.111 257.556 267.611 257 268.167C256.667 268.5 256.111 267.944 256.444 267.611C257 267.056 257.5 266.556 258.056 266C258.444 265.667 258.944 266.222 258.611 266.556Z" fill="#17005E"/>
<path d="M250.556 271.389C250 270.833 249.5 270.333 248.944 269.778C248.611 269.444 249.167 268.889 249.5 269.222C250.056 269.778 250.556 270.278 251.111 270.833C251.444 271.222 250.944 271.778 250.556 271.389Z" fill="#17005E"/>
<path d="M253.222 246.778C252.667 246.222 252.167 245.722 251.611 245.167C251.278 244.833 251.833 244.278 252.167 244.611C252.722 245.167 253.222 245.667 253.778 246.222C254.167 246.556 253.611 247.111 253.222 246.778Z" fill="#17005E"/>
<path d="M264.5 268.722C264.167 269.056 263.778 269.444 263.445 269.778C263.111 270.111 262.556 269.556 262.889 269.222C263.222 268.889 263.611 268.5 263.944 268.167C264.333 267.833 264.889 268.389 264.5 268.722Z" fill="#17005E"/>
<path d="M275.722 259.611C274.833 258.722 273.944 257.833 273.056 256.944C272.722 256.611 273.278 256.056 273.611 256.389C274.5 257.278 275.389 258.167 276.278 259.056C276.667 259.444 276.111 259.944 275.722 259.611Z" fill="#17005E"/>
<path d="M345 196.111C345 197 345 197.889 345 198.778C345 199.278 344.222 199.278 344.222 198.778C344.222 197.889 344.222 197 344.222 196.111C344.222 195.611 345 195.611 345 196.111Z" fill="#17005E"/>
<path d="M344.833 181.944C345.556 181.222 346.278 180.5 347 179.778C347.333 179.444 347.889 180 347.556 180.333C346.833 181.056 346.111 181.778 345.389 182.5C345.056 182.833 344.5 182.278 344.833 181.944Z" fill="#17005E"/>
<path d="M303.333 110.389H305.278C309.444 110.389 312.556 114.333 311.556 118.389L309 128.778C308.389 131.167 306.222 132.889 303.778 132.889H302.111L303.333 110.389Z" fill="#17005E" stroke="#17005E" stroke-width="1.5" stroke-miterlimit="10" stroke-linecap="round" stroke-linejoin="round"/>
<path d="M287.278 104.167C295.667 104.167 302.722 109.556 305.333 117H307.111C309.444 117 311.389 118.944 311.389 121.278C311.389 123.611 309.444 125.556 307.111 125.556H306.278C305.111 135 297.056 142.333 287.333 142.333C276.778 142.333 268.222 133.778 268.222 123.222C268.167 112.722 276.722 104.167 287.278 104.167Z" fill="#E556A8" stroke="#17005E" stroke-width="1.5" stroke-miterlimit="10" stroke-linecap="round" stroke-linejoin="round"/>
<path d="M287.278 104.167C295.667 104.167 302.722 109.556 305.333 117H307.111C309.444 117 311.389 118.944 311.389 121.278C311.389 123.611 309.444 125.556 307.111 125.556H306.278C305.111 135 297.056 142.333 287.333 142.333C276.778 142.333 268.222 133.778 268.222 123.222C268.167 112.722 276.722 104.167 287.278 104.167Z" fill="#E556A8" stroke="#17005E" stroke-width="1.5" stroke-miterlimit="10" stroke-linecap="round" stroke-linejoin="round"/>
<path d="M308.444 120.5C307.389 120.722 306.444 121.167 305.556 121.833C305.556 121.611 305.556 121.389 305.556 121.167C306.333 121.667 307.111 122.222 307.889 122.722C308.278 123 307.889 123.667 307.5 123.389C306.722 122.889 305.944 122.333 305.167 121.833C304.889 121.667 304.944 121.333 305.167 121.167C306.111 120.5 307.111 120 308.278 119.778C308.722 119.667 308.944 120.389 308.444 120.5Z" fill="#17005E"/>
<path d="M304.389 113.111H277.111C270.389 113.111 264.944 107.667 264.944 100.944C264.944 99.2778 266.278 97.8889 268 97.8889H294.5C301.444 97.8889 306.556 104.444 304.889 111.167L304.389 113.111Z" fill="#17005E" stroke="#17005E" stroke-width="1.5" stroke-miterlimit="10" stroke-linecap="round" stroke-linejoin="round"/>
<path d="M293.889 111.667L294.722 113.833C295.389 115.667 297.167 116.889 299.111 116.889L305.389 117V111.222L293.889 111.667Z" fill="#17005E" stroke="#17005E" stroke-width="1.5" stroke-miterlimit="10" stroke-linecap="round" stroke-linejoin="round"/>
<path d="M282.389 121.722C282.389 122.333 282.889 122.833 283.5 122.833C284.111 122.833 284.611 122.333 284.611 121.722C284.611 121.111 284.111 120.611 283.5 120.611C282.889 120.611 282.389 121.111 282.389 121.722Z" fill="#17005E" stroke="#17005E" stroke-width="1.5" stroke-miterlimit="10" stroke-linecap="round" stroke-linejoin="round"/>
<path d="M270.389 121.722C270.389 122.333 270.889 122.833 271.5 122.833C272.111 122.833 272.611 122.333 272.611 121.722C272.611 121.111 272.111 120.611 271.5 120.611C270.889 120.611 270.389 121.111 270.389 121.722Z" fill="#17005E" stroke="#17005E" stroke-width="1.5" stroke-miterlimit="10" stroke-linecap="round" stroke-linejoin="round"/>
<path d="M276.667 118.111V122.333C276.667 123.444 275.778 124.278 274.722 124.278C273.611 124.278 272.778 125.167 272.778 126.222C272.778 128.278 274.444 130 276.556 130H278.167" stroke="#17005E" stroke-width="1.5" stroke-miterlimit="10" stroke-linecap="round" stroke-linejoin="round"/>
<path d="M301.722 119.389C300.722 119.389 299.778 119.389 298.778 119.389C298.278 119.389 298.278 118.611 298.778 118.611C299.778 118.611 300.722 118.611 301.722 118.611C302.222 118.611 302.222 119.389 301.722 119.389Z" fill="#17005E"/>
<path d="M301.667 121.056C301 121.056 300.278 121.056 299.611 121.056C299.111 121.056 299.111 120.278 299.611 120.278C300.278 120.278 301 120.278 301.667 120.278C302.167 120.278 302.167 121.056 301.667 121.056Z" fill="#17005E"/>
<path d="M301.389 122.833C301.111 122.833 300.778 122.833 300.5 122.833C300 122.833 300 122.056 300.5 122.056C300.778 122.056 301.111 122.056 301.389 122.056C301.889 122.056 301.889 122.833 301.389 122.833Z" fill="#17005E"/>
<path d="M283.444 132.278L276.889 134L279.889 136.333C280.722 136.944 281.778 137.222 282.778 137C284.444 136.667 285.5 135.111 285.222 133.444C285.111 132.611 284.278 132.111 283.444 132.278Z" fill="#17005E" stroke="#17005E" stroke-width="1.5" stroke-miterlimit="10" stroke-linecap="round" stroke-linejoin="round"/>
<path d="M87.2779 157H153.889V154.222C153.889 152.389 152.389 150.944 150.611 150.944H87.3334V157H87.2779Z" fill="#17005E" stroke="#17005E" stroke-width="1.5" stroke-miterlimit="10" stroke-linecap="round" stroke-linejoin="round"/>
<path d="M86.4445 157H133.667L122.778 118.778C122.444 117.667 121.5 116.944 120.333 116.944H74.1111C72.4445 116.944 71.2223 118.556 71.6667 120.167L81 152.944C81.7778 155.333 83.9445 157 86.4445 157Z" fill="#17005E" stroke="#17005E" stroke-width="1.5" stroke-miterlimit="10" stroke-linecap="round" stroke-linejoin="round"/>
<path d="M86.5556 147H126.556L119.556 122.389C119.333 121.667 118.722 121.222 118 121.222H78.6667C77.6111 121.222 76.8334 122.278 77.1112 123.278L83.1111 144.389C83.5556 145.944 84.9445 147 86.5556 147Z" fill="#FDE7D0" stroke="#17005E" stroke-width="1.5" stroke-miterlimit="10" stroke-linecap="round" stroke-linejoin="round"/>
<path d="M103.222 129.722L97.6667 133.833C97.2778 134.111 97.5 134.722 98 134.944L105.833 138.167C106.389 138.389 106.833 138.056 106.667 137.556L104.389 130.167C104.278 129.722 103.611 129.444 103.222 129.722Z" fill="#FDE7D0" stroke="#17005E" stroke-width="1.5" stroke-miterlimit="10" stroke-linecap="round" stroke-linejoin="round"/>
<path d="M91.1667 131.333L87.5001 133.944C87.2778 134.111 87.3889 134.556 87.7223 134.667L92.9445 136.889C93.2778 137.056 93.6112 136.833 93.5001 136.5L91.8889 131.667C91.8334 131.333 91.3889 131.111 91.1667 131.333Z" fill="#17005E" stroke="#17005E" stroke-width="1.5" stroke-miterlimit="10" stroke-linecap="round" stroke-linejoin="round"/>
<path d="M87.3889 136.778L85.7778 131.944H84.8334L86.4445 136.778H87.3889Z" fill="#17005E" stroke="#17005E" stroke-width="1.5" stroke-miterlimit="10" stroke-linecap="round" stroke-linejoin="round"/>
<path d="M112.778 137.111L116.445 134.5C116.667 134.333 116.556 133.889 116.222 133.778L111 131.556C110.667 131.389 110.333 131.611 110.445 131.944L112.056 136.778C112.056 137.111 112.5 137.278 112.778 137.111Z" fill="#17005E" stroke="#17005E" stroke-width="1.5" stroke-miterlimit="10" stroke-linecap="round" stroke-linejoin="round"/>
<path d="M116.556 131.667L118.111 136.5H119.111L117.5 131.667H116.556Z" fill="#17005E" stroke="#17005E" stroke-width="1.5" stroke-miterlimit="10" stroke-linecap="round" stroke-linejoin="round"/>
<path d="M170.944 184.222L185.5 166.611L179.611 162.833L165.278 179.278L170.944 184.222Z" fill="#FDE7D0" stroke="#17005E" stroke-width="1.5" stroke-miterlimit="10" stroke-linecap="round" stroke-linejoin="round"/>
<path d="M165.5 183.944C167.722 185.889 170.778 186.056 172.222 184.333C173.722 182.611 173.111 179.667 170.889 177.722C168.667 175.778 165.611 175.611 164.167 177.333C162.667 179.056 163.278 182 165.5 183.944Z" fill="#FDE7D0" stroke="#17005E" stroke-width="1.5" stroke-miterlimit="10" stroke-linecap="round" stroke-linejoin="round"/>
<path d="M164.446 185.153C162.222 183.222 161.626 180.266 163.115 178.552C164.604 176.838 167.614 177.014 169.838 178.945C172.061 180.877 172.657 183.832 171.169 185.546C169.68 187.261 166.67 187.085 164.446 185.153Z" fill="#FDE7D0" stroke="#17005E" stroke-width="1.5" stroke-miterlimit="10" stroke-linecap="round" stroke-linejoin="round"/>
<path d="M165.444 184.056C166.833 185.278 168.778 185.389 169.722 184.333C170.667 183.222 170.278 181.389 168.889 180.111C167.5 178.889 165.556 178.778 164.611 179.833C163.611 180.944 164 182.833 165.444 184.056Z" fill="#F48914" stroke="#17005E" stroke-width="1.5" stroke-miterlimit="10" stroke-linecap="round" stroke-linejoin="round"/>
<path d="M408.333 524.5H240.667" stroke="#17005E" stroke-width="3" stroke-miterlimit="10" stroke-linecap="round" stroke-linejoin="round"/>
<path d="M215.5 524.5H134.056" stroke="#17005E" stroke-width="3" stroke-miterlimit="10" stroke-linecap="round" stroke-linejoin="round"/>
<path d="M520.667 398.333L509.889 387.556C508.5 386.167 506.222 386.167 504.833 387.556L503.889 388.5C502.5 389.889 502.5 392.167 503.889 393.556L514.667 404.333C516.055 405.722 518.333 405.722 519.722 404.333L520.667 403.389C522.055 402 522.055 399.722 520.667 398.333Z" fill="#FAD1E8"/>
<path d="M76.5608 493.973C73.0127 492.516 71.3173 488.459 72.774 484.911C74.2306 481.363 78.2877 479.667 81.8358 481.124C85.3838 482.581 87.0792 486.638 85.6226 490.186C84.1659 493.734 80.1088 495.429 76.5608 493.973Z" fill="#FDE7D0"/>
<path d="M74.4444 291.611C74.7221 291.333 74.8888 291 74.8888 290.611V284.556H80.9444C81.7221 284.556 82.3888 283.944 82.3888 283.111V275.667C82.3888 274.889 81.7777 274.222 80.9444 274.222C80.1666 274.222 79.4999 274.889 79.4999 275.667V281.722H73.4444C72.6666 281.722 71.9999 282.333 71.9999 283.167V289.222H65.9444C65.1666 289.222 64.4999 289.833 64.4999 290.667C64.4999 291.444 65.111 292.111 65.9444 292.111H73.3888C73.7777 292.056 74.1666 291.889 74.4444 291.611Z" fill="#E9D1FA"/>
<path d="M68.9999 286.222C69.2777 285.944 69.4444 285.611 69.4444 285.222V279.167H75.4444C76.2221 279.167 76.8888 278.5 76.8888 277.722V270.278C76.8888 269.5 76.2777 268.833 75.4444 268.833C74.6666 268.833 73.9999 269.444 73.9999 270.278V276.333H67.9444C67.1666 276.333 66.4999 277 66.4999 277.778V283.833H60.4444C59.6666 283.833 58.9999 284.444 58.9999 285.278C58.9999 286.056 59.611 286.722 60.4444 286.722H67.8888C68.3888 286.611 68.7222 286.444 68.9999 286.222Z" fill="#E9D1FA"/>
<path d="M475.889 53.2778C475.444 53.2778 475 53.4444 474.667 53.7778L469.444 59L464.222 53.7778C463.556 53.1111 462.444 53.1111 461.722 53.7778L455.222 60.2778C454.556 60.9444 454.556 62.0556 455.222 62.7778C455.889 63.4444 457 63.4444 457.722 62.7778L462.944 57.5556L468.167 62.7778C468.833 63.4444 469.944 63.4444 470.667 62.7778L475.889 57.5556L481.111 62.7778C481.778 63.4444 482.889 63.4444 483.611 62.7778C484.278 62.1111 484.278 61 483.611 60.2778L477.111 53.7778C476.778 53.4444 476.333 53.2778 475.889 53.2778Z" fill="#E9D1FA"/>
<path d="M475.889 62.7222C475.444 62.7222 475 62.8889 474.667 63.2222L469.444 68.4444L464.222 63.2222C463.556 62.5556 462.444 62.5556 461.722 63.2222L455.222 69.7222C454.556 70.3889 454.556 71.5 455.222 72.2222C455.889 72.8889 457 72.8889 457.722 72.2222L462.944 67L468.167 72.2222C468.833 72.8889 469.944 72.8889 470.667 72.2222L475.889 67L481.111 72.2222C481.778 72.8889 482.889 72.8889 483.611 72.2222C484.278 71.5556 484.278 70.4444 483.611 69.7222L477.111 63.2222C476.778 62.8889 476.333 62.7222 475.889 62.7222Z" fill="#E9D1FA"/>
<path d="M528.944 307.111C528.944 308.222 529.833 309.056 530.889 309.056C532 309.056 532.833 308.167 532.833 307.111C532.833 306 531.944 305.167 530.889 305.167C529.833 305.111 528.944 306 528.944 307.111Z" fill="#FAD1E8"/>
<path d="M522.944 307.111C522.944 308.222 523.833 309.056 524.889 309.056C526 309.056 526.833 308.167 526.833 307.111C526.833 306 525.944 305.167 524.889 305.167C523.778 305.111 522.944 306 522.944 307.111Z" fill="#FAD1E8"/>
<path d="M516.889 307.111C516.889 308.222 517.778 309.056 518.833 309.056C519.889 309.056 520.778 308.167 520.778 307.111C520.778 306 519.889 305.167 518.833 305.167C517.778 305.167 516.889 306 516.889 307.111Z" fill="#FAD1E8"/>
<path d="M530.889 297.444C529.815 297.444 528.944 296.574 528.944 295.5C528.944 294.426 529.815 293.556 530.889 293.556C531.963 293.556 532.833 294.426 532.833 295.5C532.833 296.574 531.963 297.444 530.889 297.444Z" fill="#FAD1E8"/>
<path d="M522.944 295.5C522.944 296.611 523.833 297.444 524.889 297.444C526 297.444 526.833 296.556 526.833 295.5C526.833 294.444 525.944 293.556 524.889 293.556C523.778 293.556 522.944 294.389 522.944 295.5Z" fill="#FAD1E8"/>
<path d="M518.889 297.444C517.815 297.444 516.944 296.574 516.944 295.5C516.944 294.426 517.815 293.556 518.889 293.556C519.963 293.556 520.833 294.426 520.833 295.5C520.833 296.574 519.963 297.444 518.889 297.444Z" fill="#FAD1E8"/>
<path d="M528.944 301.278C528.944 302.389 529.833 303.222 530.889 303.222C532 303.222 532.833 302.333 532.833 301.278C532.833 300.167 531.944 299.333 530.889 299.333C529.833 299.333 528.944 300.222 528.944 301.278Z" fill="#FAD1E8"/>
<path d="M522.944 301.278C522.944 302.389 523.833 303.222 524.889 303.222C526 303.222 526.833 302.333 526.833 301.278C526.833 300.167 525.944 299.333 524.889 299.333C523.778 299.333 522.944 300.222 522.944 301.278Z" fill="#FAD1E8"/>
<path d="M516.889 301.278C516.889 302.389 517.778 303.222 518.833 303.222C519.889 303.222 520.778 302.333 520.778 301.278C520.778 300.167 519.889 299.333 518.833 299.333C517.778 299.333 516.889 300.222 516.889 301.278Z" fill="#FAD1E8"/>
<path d="M84.7777 79.3333C84.7777 81.1111 86.2221 82.5556 87.9999 82.5556C89.7777 82.5556 91.2222 81.1111 91.2222 79.3333C91.2222 77.5556 89.7777 76.1111 87.9999 76.1111C86.2221 76.1111 84.7777 77.5556 84.7777 79.3333Z" fill="#FAD1E8"/>
<path d="M75.4999 79.3333C75.4999 81.1111 76.9444 82.5556 78.7222 82.5556C80.5 82.5556 81.9444 81.1111 81.9444 79.3333C81.9444 77.5556 80.5 76.1111 78.7222 76.1111C76.9444 76.1111 75.4999 77.5556 75.4999 79.3333Z" fill="#FAD1E8"/>
<path d="M84.7777 88.7778C84.7777 90.5556 86.2221 92 87.9999 92C89.7777 92 91.2222 90.5556 91.2222 88.7778C91.2222 87 89.7777 85.5556 87.9999 85.5556C86.2221 85.6111 84.7777 87 84.7777 88.7778Z" fill="#FAD1E8"/>
<path d="M75.4999 88.7778C75.4999 90.5556 76.9444 92 78.7222 92C80.5 92 81.9444 90.5556 81.9444 88.7778C81.9444 87 80.5 85.5556 78.7222 85.5556C76.9444 85.6111 75.4999 87 75.4999 88.7778Z" fill="#FAD1E8"/>
<path d="M5.82464 427.914H85.7691C88.5469 427.914 90.7691 425.692 90.7691 422.914V369.692C90.7691 366.914 88.5469 364.692 85.7691 364.692H5.7691C2.99133 364.692 0.769096 366.914 0.769096 369.692V422.914C0.824654 425.692 3.04687 427.914 5.82464 427.914Z" fill="#CFAFEB" stroke="#17005E" stroke-width="1.5" stroke-miterlimit="10" stroke-linecap="round" stroke-linejoin="round"/>
<path d="M52.158 383.192L37.8802 391.414C36.9358 391.97 36.9358 393.359 37.8802 393.914L52.158 402.137C53.1025 402.692 54.3247 401.97 54.3247 400.859V384.414C54.3247 383.303 53.1025 382.637 52.158 383.192Z" fill="#FDE7D0" stroke="#17005E" stroke-width="1.5" stroke-miterlimit="10" stroke-linecap="round" stroke-linejoin="round"/>
<path d="M8.10246 418.581C8.10246 419.137 8.54692 419.526 9.04692 419.526C9.54692 419.526 9.99133 419.081 9.99133 418.581C9.99133 418.026 9.54692 417.637 9.04692 417.637C8.54692 417.637 8.10246 418.026 8.10246 418.581Z" fill="#17005E" stroke="#17005E" stroke-width="1.5" stroke-miterlimit="10" stroke-linecap="round" stroke-linejoin="round"/>
<path d="M74.2691 418.581H9.10245" stroke="#17005E" stroke-width="1.5" stroke-miterlimit="10" stroke-linecap="round" stroke-linejoin="round"/>
<path d="M12.7691 369.859H6.0469" stroke="#17005E" stroke-width="1.5" stroke-miterlimit="10" stroke-linecap="round" stroke-linejoin="round"/>
<path d="M12.7691 372.637H6.0469" stroke="#17005E" stroke-width="1.5" stroke-miterlimit="10" stroke-linecap="round" stroke-linejoin="round"/>
<path d="M12.7691 375.414H6.0469" stroke="#17005E" stroke-width="1.5" stroke-miterlimit="10" stroke-linecap="round" stroke-linejoin="round"/>
<path d="M79.4914 416.692H84.3802V420.47H79.4914V416.692Z" fill="#F5A3D2" stroke="#17005E" stroke-width="1.5" stroke-miterlimit="10" stroke-linecap="round" stroke-linejoin="round"/>
<path d="M474.692 148.008H575.359C578.137 148.008 580.359 145.786 580.359 143.008V75.2307C580.359 72.4529 578.137 70.2307 575.359 70.2307H474.692C471.914 70.2307 469.692 72.4529 469.692 75.2307V142.953C469.692 145.731 471.914 148.008 474.692 148.008Z" fill="#FDE7D0" stroke="#17005E" stroke-width="1.5" stroke-miterlimit="10" stroke-linecap="round" stroke-linejoin="round"/>
<path d="M532.859 92.9529L515.248 103.064C514.026 103.731 514.026 105.453 515.248 106.175L532.859 116.286C534.026 116.953 535.526 116.12 535.526 114.731V94.5085C535.526 93.1196 534.026 92.2863 532.859 92.9529Z" fill="#DC4298" stroke="#17005E" stroke-width="1.5" stroke-miterlimit="10" stroke-linecap="round" stroke-linejoin="round"/>
<path d="M524.081 136.508C524.081 137.175 524.637 137.675 525.248 137.675C525.859 137.675 526.414 137.12 526.414 136.508C526.414 135.842 525.859 135.342 525.248 135.342C524.637 135.342 524.081 135.842 524.081 136.508Z" fill="#17005E" stroke="#17005E" stroke-width="1.5" stroke-miterlimit="10" stroke-linecap="round" stroke-linejoin="round"/>
<path d="M560.081 136.508H479.859" stroke="#17005E" stroke-width="1.5" stroke-miterlimit="10" stroke-linecap="round" stroke-linejoin="round"/>
<path d="M484.359 76.6196H476.081" stroke="#17005E" stroke-width="1.5" stroke-miterlimit="10" stroke-linecap="round" stroke-linejoin="round"/>
<path d="M484.359 80.0085H476.081" stroke="#17005E" stroke-width="1.5" stroke-miterlimit="10" stroke-linecap="round" stroke-linejoin="round"/>
<path d="M484.359 83.3974H476.081" stroke="#17005E" stroke-width="1.5" stroke-miterlimit="10" stroke-linecap="round" stroke-linejoin="round"/>
<path d="M566.47 134.175H572.47V138.786H566.47V134.175Z" fill="#E9D1FA" stroke="#17005E" stroke-width="1.5" stroke-miterlimit="10" stroke-linecap="round" stroke-linejoin="round"/>
<path d="M427.616 500.684H521.838C524.616 500.684 526.838 498.461 526.838 495.684V432.461C526.838 429.684 524.616 427.461 521.838 427.461H427.616C424.838 427.461 422.616 429.684 422.616 432.461V495.684C422.616 498.406 424.838 500.684 427.616 500.684Z" fill="#DC4298" stroke="#17005E" stroke-width="1.5" stroke-miterlimit="10" stroke-linecap="round" stroke-linejoin="round"/>
<path d="M482.06 448.85L465.504 458.35C464.393 459.017 464.393 460.628 465.504 461.295L482.06 470.795C483.171 471.461 484.56 470.628 484.56 469.35V450.295C484.616 449.017 483.171 448.184 482.06 448.85Z" fill="#E9D1FA" stroke="#17005E" stroke-width="1.5" stroke-miterlimit="10" stroke-linecap="round" stroke-linejoin="round"/>
<path d="M449.56 489.85C449.56 490.461 450.06 490.961 450.671 490.961C451.282 490.961 451.782 490.461 451.782 489.85C451.782 489.239 451.282 488.739 450.671 488.739C450.06 488.739 449.56 489.239 449.56 489.85Z" fill="#17005E" stroke="#17005E" stroke-width="1.5" stroke-miterlimit="10" stroke-linecap="round" stroke-linejoin="round"/>
<path d="M507.727 489.85H432.171" stroke="#17005E" stroke-width="1.5" stroke-miterlimit="10" stroke-linecap="round" stroke-linejoin="round"/>
<path d="M436.449 433.461H428.616" stroke="#17005E" stroke-width="1.5" stroke-miterlimit="10" stroke-linecap="round" stroke-linejoin="round"/>
<path d="M436.449 436.628H428.616" stroke="#17005E" stroke-width="1.5" stroke-miterlimit="10" stroke-linecap="round" stroke-linejoin="round"/>
<path d="M436.449 439.795H428.616" stroke="#17005E" stroke-width="1.5" stroke-miterlimit="10" stroke-linecap="round" stroke-linejoin="round"/>
<path d="M513.727 487.684H519.393V492.073H513.727V487.684Z" fill="#FDE7D0" stroke="#17005E" stroke-width="1.5" stroke-miterlimit="10" stroke-linecap="round" stroke-linejoin="round"/>
<defs>
<filter id="filter0_f_1_204" x="13.2" y="0.599911" width="557.6" height="558.8" filterUnits="userSpaceOnUse" color-interpolation-filters="sRGB">
<feFlood flood-opacity="0" result="BackgroundImageFix"/>
<feBlend mode="normal" in="SourceGraphic" in2="BackgroundImageFix" result="shape"/>
<feGaussianBlur stdDeviation="50" result="effect1_foregroundBlur_1_204"/>
</filter>
</defs>
</svg>
