<svg width="24" height="25" viewBox="0 0 24 25" fill="none" xmlns="http://www.w3.org/2000/svg">
<path d="M12 3.06481L14.8658 8.87066C14.9022 8.94437 14.9725 8.99548 15.0538 9.00737L21.4629 9.94415L16.8256 14.4609C16.7666 14.5183 16.7397 14.6011 16.7536 14.6823L17.848 21.0629L12.1164 18.0487C12.0435 18.0104 11.9565 18.0104 11.8836 18.0487L6.15205 21.0629L7.2464 14.6823C7.26032 14.6011 7.2334 14.5183 7.17443 14.4609L2.5371 9.94415L8.94616 9.00737C9.0275 8.99548 9.09779 8.94437 9.13418 8.87066L12 3.06481Z" stroke="#FAD6A1" stroke-width="0.5" stroke-linecap="round" stroke-linejoin="round"/>
<path d="M12 18.27V2.5L8.91 8.76L2 9.77L7 14.64L5.82 21.52L12 18.27Z" fill="#FAD6A1"/>
</svg>
