<svg width="205" height="44" viewBox="0 0 205 44" fill="none" xmlns="http://www.w3.org/2000/svg">
<g clip-path="url(#clip0_372_158)">
<path d="M39.0025 14.5811H16.141C15.7049 14.5811 15.3514 14.9346 15.3514 15.3707V18.0324C15.3514 18.4685 15.7049 18.822 16.141 18.822H39.0025C39.4386 18.822 39.7921 18.4685 39.7921 18.0324V15.3707C39.7921 14.9346 39.4386 14.5811 39.0025 14.5811Z" fill="#52BD94"/>
<path d="M23.8803 25.178H1.01885C0.582729 25.178 0.229187 25.5315 0.229187 25.9676V28.6293C0.229187 29.0654 0.582729 29.4189 1.01885 29.4189H23.8803C24.3164 29.4189 24.6699 29.0654 24.6699 28.6293V25.9676C24.6699 25.5315 24.3164 25.178 23.8803 25.178Z" fill="#52BD94"/>
<path fill-rule="evenodd" clip-rule="evenodd" d="M3.16141 17.4828C3.36196 17.5346 3.57482 17.5058 3.75441 17.4026C3.934 17.2994 4.06604 17.13 4.12225 16.9306C5.38815 12.9681 8.08877 9.62157 11.6944 7.54725C15.3001 5.47293 19.5507 4.82053 23.6125 5.71801C23.809 5.75851 24.0136 5.72212 24.1841 5.61631C24.3547 5.5105 24.4781 5.34334 24.5291 5.14924L25.2194 2.57318C25.2464 2.46977 25.2522 2.36196 25.2364 2.25625C25.2207 2.15053 25.1837 2.0491 25.1277 1.95805C25.0718 1.86699 24.9979 1.7882 24.9107 1.72642C24.8235 1.66464 24.7247 1.62114 24.6202 1.59853C19.4874 0.443161 14.1076 1.2645 9.55331 3.89883C4.99901 6.53315 1.60469 10.787 0.0469475 15.8124C0.0176188 15.9132 0.00868215 16.0188 0.0206603 16.1231C0.0326384 16.2274 0.0652908 16.3283 0.116708 16.4198C0.168125 16.5113 0.237275 16.5917 0.320113 16.6561C0.402951 16.7206 0.497815 16.7679 0.599156 16.7953L3.16141 17.4828Z" fill="#52BD94"/>
<path fill-rule="evenodd" clip-rule="evenodd" d="M36.8655 26.506C36.6634 26.4517 36.4481 26.4792 36.2661 26.5826C36.0842 26.6859 35.9503 26.8569 35.8936 27.0583C34.6304 31.0233 31.9309 34.373 28.325 36.4501C24.719 38.5271 20.467 39.1815 16.4034 38.2847C16.2068 38.2435 16.0018 38.2796 15.8311 38.3855C15.6604 38.4914 15.5371 38.659 15.4867 38.8534L14.8103 41.4157C14.7828 41.5193 14.7767 41.6274 14.7923 41.7334C14.8078 41.8394 14.8447 41.9412 14.9007 42.0326C14.9567 42.1239 15.0307 42.203 15.1181 42.265C15.2055 42.3269 15.3046 42.3705 15.4094 42.3931C20.5425 43.5457 25.9213 42.7228 30.4751 40.0883C35.0288 37.4538 38.4233 33.2009 39.9827 28.1765C40.0124 28.0759 40.0216 27.9703 40.0097 27.8661C39.9979 27.7619 39.9653 27.6611 39.9138 27.5697C39.8623 27.4783 39.793 27.3981 39.71 27.334C39.627 27.2699 39.5319 27.223 39.4305 27.1963L36.8655 26.506Z" fill="#52BD94"/>
<path d="M32.0944 9.92597C33.3783 9.92597 34.4192 8.88512 34.4192 7.60117C34.4192 6.31722 33.3783 5.27637 32.0944 5.27637C30.8104 5.27637 29.7696 6.31722 29.7696 7.60117C29.7696 8.88512 30.8104 9.92597 32.0944 9.92597Z" fill="#52BD94"/>
<path d="M7.93247 38.7209C9.21642 38.7209 10.2573 37.68 10.2573 36.3961C10.2573 35.1121 9.21642 34.0713 7.93247 34.0713C6.64851 34.0713 5.60767 35.1121 5.60767 36.3961C5.60767 37.68 6.64851 38.7209 7.93247 38.7209Z" fill="#52BD94"/>
<path fill-rule="evenodd" clip-rule="evenodd" d="M96.7276 17.784C97.5753 16.8531 98.611 16.1128 99.7662 15.612C100.921 15.1113 102.17 14.8616 103.429 14.8793C105.875 14.8793 107.78 15.6359 108.984 17.0882V15.8844C108.992 15.718 109.061 15.5604 109.178 15.4421C109.296 15.3238 109.453 15.2532 109.619 15.2438H112.844C113.01 15.2538 113.167 15.3246 113.284 15.4428C113.401 15.561 113.47 15.7182 113.479 15.8844V33.7897C113.579 36.3163 112.798 38.7992 111.27 40.8138C109.531 42.9288 106.891 44.0001 103.423 44.0001C98.6024 44.0001 94.7977 40.9491 94.1709 36.5922C94.1557 36.435 94.196 36.2775 94.2847 36.1469C94.3735 36.0163 94.5051 35.9208 94.6568 35.8771L97.8072 35.1371C97.8237 35.1358 97.8404 35.1358 97.8569 35.1371C97.9391 35.1246 98.0229 35.1285 98.1036 35.1486C98.1842 35.1686 98.2601 35.2045 98.3269 35.254C98.3936 35.3035 98.4499 35.3658 98.4924 35.4372C98.535 35.5086 98.563 35.5877 98.5748 35.67C98.7154 36.8488 99.2909 37.9327 100.189 38.7095C101.087 39.4862 102.242 39.8999 103.429 39.8696C107.195 39.8696 108.951 37.9368 108.951 33.8974V32.3291C108.26 33.1035 107.407 33.7166 106.453 34.125C105.498 34.5335 104.466 34.7272 103.429 34.6926C98.0695 34.6926 94.1819 30.5317 94.1819 24.8053C94.1343 22.2308 95.0411 19.7297 96.7276 17.784ZM159.263 14.6336H159.431C165.193 14.7109 168.763 18.7227 168.763 25.1422C168.763 25.4825 168.744 25.8226 168.708 26.161C168.69 26.3126 168.617 26.4523 168.503 26.554C168.389 26.6556 168.242 26.7123 168.09 26.7132H154.392C154.433 28.0959 155.017 29.4069 156.016 30.3632C157.016 31.3194 158.351 31.8441 159.735 31.8239C160.818 31.8916 161.892 31.5902 162.782 30.9689C163.672 30.3476 164.326 29.4432 164.636 28.4029C164.693 28.2508 164.807 28.1266 164.953 28.0562C165.1 27.9857 165.268 27.9745 165.422 28.0247L168.148 28.991C168.226 29.0168 168.299 29.0588 168.36 29.1145C168.422 29.1702 168.47 29.2382 168.504 29.3141C168.541 29.3874 168.563 29.4675 168.569 29.5496C168.575 29.6316 168.564 29.714 168.537 29.7917C167.919 31.623 166.729 33.2073 165.142 34.3109C163.555 35.4144 161.656 35.979 159.724 35.9213C158.436 35.9338 157.159 35.6909 155.966 35.2065C154.773 34.7222 153.688 34.006 152.774 33.0995C151.776 32.0502 150.998 30.8121 150.486 29.458C149.973 28.1038 149.736 26.6609 149.789 25.2139C149.789 18.5874 154.605 14.6198 159.257 14.6198L159.263 14.6336ZM81.7655 14.6336C87.63 14.6336 91.2746 18.662 91.2746 25.1449C91.2741 25.4853 91.2556 25.8253 91.2194 26.1637C91.2029 26.316 91.1306 26.4568 91.0164 26.5588C90.9021 26.6608 90.7541 26.7168 90.6009 26.7159H76.9033C76.9417 28.1064 77.5284 29.4253 78.5355 30.3849C79.5426 31.3444 80.8884 31.8666 82.2791 31.8377C83.3626 31.9064 84.4373 31.6054 85.3276 30.984C86.2178 30.3626 86.8709 29.4575 87.1799 28.4167C87.2356 28.2633 87.3491 28.1378 87.4962 28.0671C87.6433 27.9964 87.8123 27.9861 87.9668 28.0385L90.703 29.0021C90.782 29.0275 90.8546 29.0694 90.916 29.1252C90.9774 29.1809 91.0262 29.249 91.0592 29.3251C91.0906 29.4009 91.1067 29.482 91.1067 29.564C91.1067 29.6459 91.0906 29.7271 91.0592 29.8028C90.4413 31.6332 89.252 33.2167 87.6663 34.3202C86.0806 35.4237 84.1825 35.9888 82.2515 35.9323C80.9618 35.9462 79.6822 35.704 78.4869 35.2196C77.2916 34.7352 76.2043 34.0183 75.2881 33.1105C74.2922 32.06 73.5154 30.8217 73.0029 29.4678C72.4905 28.114 72.2527 26.6717 72.3034 25.225C72.3034 18.5985 77.1187 14.6309 81.7738 14.6309L81.7655 14.6336ZM61.0191 14.6336C63.6503 14.6336 65.7791 15.2714 67.3556 16.5332C68.4203 17.3824 69.2099 18.5275 69.6252 19.8244C69.6383 19.8795 69.6403 19.9367 69.6311 19.9926C69.6219 20.0485 69.6016 20.102 69.5716 20.15C69.5415 20.1981 69.5023 20.2397 69.456 20.2724C69.4098 20.3051 69.3575 20.3283 69.3022 20.3407L66.0359 21.4203C65.8909 21.4755 65.7308 21.4755 65.5858 21.4203C65.5242 21.3918 65.4694 21.3505 65.4251 21.299C65.3808 21.2476 65.348 21.1872 65.329 21.1221C65.0529 20.0646 64.1031 18.2892 61.0135 18.2892C58.8572 18.2892 57.565 19.5262 57.565 20.7245C57.565 21.5197 57.9764 22.544 59.9202 22.914L63.5095 23.5877C67.5213 24.3967 69.8185 26.5917 69.8185 29.6482V29.5957C69.8185 32.6329 66.8973 35.8771 61.4691 35.8771C55.1739 35.8771 52.7 32.3153 52.2445 30.2142C52.2294 30.1044 52.255 29.993 52.3166 29.9009C52.3782 29.8088 52.4714 29.7425 52.5785 29.7144L55.947 28.6652C56.0073 28.6542 56.069 28.6542 56.1292 28.6652C56.2254 28.6635 56.3204 28.6863 56.4053 28.7315C56.4664 28.7609 56.5204 28.8033 56.5633 28.8558C56.6062 28.9083 56.6371 28.9695 56.6538 29.0352C57.079 31.0563 58.9041 32.2601 61.5298 32.2601C63.9734 32.2601 65.0861 30.9818 65.0861 29.8221C65.0861 28.6625 64.0949 27.8093 62.3913 27.467L58.6142 26.7325C55.0911 26.0671 52.8961 23.8776 52.8961 21.0282C52.8961 17.5603 56.6207 14.6336 61.0191 14.6336ZM199.775 9.01489C199.947 9.02545 200.108 9.10106 200.225 9.22628C200.343 9.35149 200.408 9.51686 200.408 9.68859V15.2107H203.95C204.12 15.2232 204.279 15.2996 204.396 15.4245C204.512 15.5495 204.577 15.7137 204.577 15.8844V18.8276C204.578 18.9951 204.512 19.1561 204.395 19.2756C204.277 19.395 204.117 19.4633 203.95 19.4654H200.408V29.292C200.408 30.921 201.054 31.5947 202.716 31.5947C203.095 31.5884 203.473 31.557 203.848 31.5008C203.939 31.4854 204.032 31.4899 204.12 31.5143C204.209 31.5386 204.291 31.5821 204.361 31.6416C204.428 31.7038 204.482 31.7789 204.519 31.8625C204.556 31.946 204.576 32.0362 204.577 32.1276V34.8886C204.578 35.026 204.534 35.1601 204.453 35.2706C204.371 35.3811 204.256 35.4622 204.124 35.5016C203.316 35.7282 202.479 35.837 201.639 35.8246C198.088 35.8246 195.888 33.5412 195.888 29.858V19.5069H192.823C192.657 19.4968 192.501 19.4259 192.384 19.3077C192.268 19.1894 192.199 19.0322 192.191 18.8663V15.9175C192.19 15.7456 192.255 15.5798 192.372 15.4545C192.49 15.3291 192.651 15.2537 192.823 15.2438H193.618C194.582 15.2438 196.205 14.907 196.205 12.6098V9.68859C196.204 9.51667 196.269 9.35093 196.387 9.22557C196.505 9.10021 196.666 9.02479 196.838 9.01489H199.775ZM133.289 17.9248C133.982 16.8664 134.938 16.0064 136.063 15.4294C137.189 14.8523 138.445 14.5781 139.709 14.6336C143.21 14.6336 146.747 17.0992 146.747 22.486V34.9549C146.738 35.1211 146.669 35.2783 146.552 35.3965C146.434 35.5147 146.278 35.5855 146.112 35.5955H142.884C142.718 35.5848 142.562 35.5137 142.446 35.3956C142.329 35.2775 142.26 35.1206 142.252 34.9549V22.8864C142.252 21.3595 141.774 18.7862 138.541 18.7862C136.177 18.7862 134.499 20.6444 134.499 23.3392V34.9549C134.491 35.1208 134.422 35.278 134.305 35.3963C134.189 35.5145 134.032 35.5854 133.866 35.5955H130.597C130.431 35.5855 130.275 35.5147 130.158 35.3965C130.04 35.2783 129.971 35.1211 129.962 34.9549V22.8864C129.968 21.3595 129.493 18.7752 126.257 18.7752C123.8 18.7752 122.143 20.6196 122.143 23.3668V34.9549C122.135 35.1206 122.065 35.2775 121.949 35.3956C121.832 35.5137 121.676 35.5848 121.511 35.5955H118.286C118.121 35.5841 117.966 35.5126 117.851 35.3945C117.735 35.2764 117.667 35.12 117.659 34.9549V15.843C117.667 15.6781 117.736 15.522 117.851 15.404C117.967 15.286 118.121 15.2143 118.286 15.2024H121.389C121.555 15.213 121.711 15.2841 121.827 15.4023C121.944 15.5204 122.013 15.6772 122.022 15.843V16.9943C122.713 16.2381 123.556 15.6367 124.497 15.2298C125.437 14.823 126.453 14.6198 127.477 14.6336C128.654 14.5992 129.818 14.8877 130.843 15.4679C131.867 16.0481 132.714 16.8978 133.289 17.9248ZM182.466 14.6336C183.499 14.5895 184.527 14.7805 185.475 15.1924C186.422 15.6042 187.264 16.226 187.936 17.0109C189.19 18.661 189.827 20.6972 189.739 22.7677V34.9549C189.732 35.1197 189.664 35.2761 189.549 35.3943C189.434 35.5125 189.28 35.5841 189.115 35.5955H185.849C185.683 35.5849 185.526 35.5139 185.409 35.3958C185.292 35.2778 185.223 35.1209 185.214 34.9549V23.4193C185.214 20.4014 183.794 18.8663 181.1 18.8663C180.513 18.8474 179.93 18.9667 179.398 19.2147C178.866 19.4627 178.4 19.8323 178.038 20.2938C177.307 21.3446 176.938 22.6043 176.986 23.8831V34.9549C176.977 35.1206 176.908 35.2775 176.792 35.3956C176.675 35.5137 176.519 35.5848 176.353 35.5955H173.093C172.927 35.5848 172.771 35.5137 172.654 35.3956C172.538 35.2775 172.469 35.1206 172.46 34.9549V15.8291C172.467 15.6625 172.535 15.5043 172.652 15.3854C172.769 15.2664 172.926 15.1953 173.093 15.1858H176.279C176.443 15.1965 176.598 15.2674 176.714 15.3851C176.83 15.5027 176.898 15.6589 176.906 15.8236V17.171C177.581 16.356 178.432 15.7043 179.395 15.2649C180.358 14.8255 181.408 14.6097 182.466 14.6336ZM103.989 18.9077C100.808 18.9077 98.7901 21.169 98.7901 24.8053C98.7901 28.4416 100.784 30.7001 103.989 30.7001C107.046 30.7001 109.105 28.3284 109.105 24.8053C109.105 21.2822 107.046 18.9077 103.989 18.9077ZM81.7987 18.7255C80.6251 18.7052 79.4861 19.1236 78.6047 19.8988C77.7233 20.674 77.1629 21.7502 77.0331 22.9167H86.6139C86.3848 20.3297 84.5459 18.7255 81.7987 18.7255ZM159.315 18.7255C158.142 18.7072 157.005 19.1265 156.125 19.9014C155.245 20.6763 154.685 21.7514 154.555 22.9167H164.139C163.901 20.3297 162.073 18.7255 159.312 18.7255H159.315Z" fill="#52BD94"/>
<path d="M57.6478 1.70908V8.13127H55.8283V1.70908H53.313V0.151855H60.1908V1.70908H57.6478Z" fill="#52BD94"/>
<path d="M71.5469 8.15888H69.6556L67.9217 2.27786L66.1574 8.15888H64.3047L61.9578 0.151855H63.8906L65.3788 5.91968L67.0575 0.151855H68.9902L70.6468 5.91968L72.0881 0.151855H73.8662L71.5469 8.15888Z" fill="#52BD94"/>
<path d="M76.3705 8.13127V0.151855H78.1624V8.13127H76.3705Z" fill="#52BD94"/>
<path d="M81.3873 8.13127V0.151855H83.2068V6.56024H86.3213V8.13127H81.3873Z" fill="#52BD94"/>
<path d="M89.0326 8.13127V0.151855H90.8383V8.13127H89.0326Z" fill="#52BD94"/>
<path d="M97.5946 8.28324C95.3858 8.28324 93.6187 6.6984 93.6187 4.15548C93.6187 1.61256 95.4106 0.013916 97.6084 0.013916C99.8062 0.013916 101.582 1.59876 101.582 4.15548C101.582 6.71221 99.8035 8.28324 97.5946 8.28324ZM97.5946 1.47451C96.2141 1.47451 95.4106 2.61206 95.4106 4.14168C95.4106 5.6713 96.2389 6.82265 97.5946 6.82265C98.9503 6.82265 99.7482 5.65749 99.7482 4.15548C99.7482 2.65347 98.942 1.47451 97.6084 1.47451H97.5946Z" fill="#52BD94"/>
</g>
<defs>
<clipPath id="clip0_372_158">
<rect width="204.577" height="44" fill="white"/>
</clipPath>
</defs>
</svg>
