<svg width="20" height="16" viewBox="0 0 20 16" fill="none" xmlns="http://www.w3.org/2000/svg">
<path d="M19.523 2.05724C18.8367 2.36132 18.0996 2.56678 17.3246 2.65965C18.1242 2.18117 18.7225 1.4281 19.0077 0.540951C18.2564 0.987201 17.4342 1.30131 16.5767 1.46963C16.0001 0.853961 15.2363 0.445886 14.404 0.30876C13.5717 0.171635 12.7174 0.31313 11.9738 0.71128C11.2301 1.10943 10.6387 1.74196 10.2914 2.51066C9.94406 3.27936 9.86024 4.14122 10.0529 4.96245C8.53063 4.88601 7.04141 4.49034 5.68192 3.80111C4.32243 3.11188 3.12305 2.14449 2.16163 0.961733C1.8329 1.5288 1.64387 2.18627 1.64387 2.88648C1.64351 3.51683 1.79873 4.13752 2.09579 4.69348C2.39284 5.24945 2.82252 5.7235 3.34672 6.07357C2.73879 6.05423 2.14427 5.88996 1.61264 5.59444V5.64375C1.61258 6.52784 1.91839 7.38472 2.47819 8.06899C3.03799 8.75327 3.81729 9.2228 4.68386 9.39791C4.1199 9.55054 3.52863 9.57302 2.95471 9.46366C3.1992 10.2244 3.67546 10.8896 4.3168 11.3662C4.95814 11.8427 5.73245 12.1068 6.53135 12.1215C5.17518 13.1861 3.50032 13.7636 1.77619 13.7611C1.47078 13.7611 1.16563 13.7433 0.862305 13.7076C2.61239 14.8329 4.64962 15.4301 6.73024 15.4277C13.7734 15.4277 17.6237 9.59433 17.6237 4.53509C17.6237 4.37072 17.6196 4.20471 17.6122 4.04034C18.3611 3.49873 19.0076 2.82804 19.5213 2.05971L19.523 2.05724Z" fill="#086BED"/>
</svg>
